<svg height="660" width="600" xmlns="http://www.w3.org/2000/svg" xmlns:xlink="http://www.w3.org/1999/xlink"><radialGradient id="a" cx="221.44487" cy="226.33101" gradientTransform="matrix(1.353218 0 0 1.348928 -77.62935 -85.74693)" gradientUnits="userSpaceOnUse" r="300"><stop offset="0" stop-color="#fff" stop-opacity=".313726"/><stop offset=".19" stop-color="#fff" stop-opacity=".25098"/><stop offset=".60000002" stop-color="#6b6b6b" stop-opacity=".12549"/><stop offset="1" stop-opacity=".12549"/></radialGradient><path d="m265.83218 641.74532c-54.3695-27.00804-104.16845-62.50126-145.407-103.63593-60.333389-60.18138-96.324889-124.60308-113.3461461-202.8798-4.6796927-21.52078-4.9176637-28.86766-5.7623553-177.89908l-.88108405-155.4512582h299.94503545 299.945l-.96267 153.2064682c-1.02576 163.24741-.93124 161.74026-12.89464 205.60106-9.58158 35.12844-27.02203 74.06318-46.81534 104.51241-47.05564 72.38847-130.22814 142.1747-218.22548 183.10303-10.70628 4.97958-20.5243 9.0538-21.81784 9.0538-1.29351 0-16.49338-7.02481-33.77748-15.6107z" fill="#2b5df2"/><g id="b" transform="matrix(.28666556 0 0 .27470087 59.687673 80.323156)"><path d="m407.02914 608.69929c1.42457-61.95601 16.75116-119.53947 45.28957-174.1086 74.71442-157.1858 302.92034-153.43174 252.61522 38.81131-18.53686 70.83937-81.50861 112.47386-156.31886 119.61501 5.39959-18.66537 35.10029-84.65245 11.12447-97.56156-38.33816 1.4484-85.94434 67.7051-97.39282 99.30072-1.6527 4.5361-1.19041 9.77801-3.03584 14.24007" fill="#fcef3c" fill-rule="evenodd" stroke="#000" stroke-width="6"/><g fill="#fcef3c" stroke="#000" stroke-width="6" transform="translate(-38.53215 -44.5769)"><path d="m350.52292 657.37224c-1.42457-61.95601-16.75116-119.53947-45.28957-174.1086-74.71442-157.1858-302.9203361-153.43174-252.615217 38.81131 18.536864 70.83937 81.508607 112.47386 156.318857 119.61501-5.39959-18.66537-35.10029-84.65245-11.12447-97.56156 38.33816 1.4484 85.94434 67.7051 97.39282 99.30072 1.6527 4.5361 1.19041 9.77801 3.03584 14.24007" fill="#fcef3c" fill-rule="evenodd" stroke="#000" stroke-width="6"/><path d="m393.6259 57.12017c-78.7143 84.84944-131.56461 182.96158-108.78125 298.03125 12.56957 63.48391 43.04182 122.27973 64.53125 183.4375 13.43648 38.36985 16.87223 78.45173 15.28125 118.78125h66.78125c-3.19651-40.62617 3.80671-79.99824 15.28125-118.78125 20.47419-61.5383 51.62579-119.90553 64.53125-183.4375 24.12802-118.77919-32.50691-208.35952-108.4375-297.65625l-4.64043-5.918268z" fill="#fcef3c" stroke="#000" stroke-width="6"/><path d="m331.34465 704.40142c-13.96166 39.13002-70.88818 110.79207-101.125 131.21875-7.84217 5.29785 37.48637-3.05157 57.78125-7.5 26.61901-5.83464 61.21745-34.19759 60.40625-24.1875-.0756 45.83826 12.81104 122.32424 46.40625 157.46875l3.18208 3.3876 3.28667-3.3876c33.57769-39.17095 46.23761-108.04198 46.40625-157.46875-.8112-10.01009 33.78725 18.35286 60.40625 24.1875 20.29488 4.44843 65.62342 12.79785 57.78125 7.5-30.23682-20.42668-87.13207-92.08873-101.09375-131.21875z" fill="#fcef3c" fill-rule="evenodd" stroke="#000" stroke-width="6"/><path d="m239.3521 655.37946h317.88773v51.503345h-317.88773z" fill="#fcef3c" stroke="#000" stroke-width="6"/></g></g><use id="c" height="660" transform="translate(267.12923 1.122392)" width="600" xlink:href="#b"/><use height="660" transform="translate(-134.687 250.29336)" width="600" xlink:href="#c"/><path d="m300.00001 658.5s298.5-112.32031 298.5-397.77183c0-285.451504 0-258.5516835 0-258.5516835h-597.00001v258.5516835c0 285.45152 298.50001 397.77183 298.50001 397.77183z" fill="url(#a)" fill-rule="evenodd"/><path d="m299.99999 658.50028s-298.49999-112.32036-298.49999-397.772c0-285.451616 0-258.5517843 0-258.5517843h596.99999v258.5517843c0 285.45164-298.5 397.772-298.5 397.772z" fill="none" stroke="#000" stroke-width="3"/></svg>