<?xml version="1.0" encoding="UTF-8" standalone="no"?>
<svg
   height="660"
   width="660"
   version="1.1"
   id="svg49"
   sodipodi:docname="Blason_Languedoc.svg"
   inkscape:version="1.1 (c4e8f9e, 2021-05-24)"
   xmlns:inkscape="http://www.inkscape.org/namespaces/inkscape"
   xmlns:sodipodi="http://sodipodi.sourceforge.net/DTD/sodipodi-0.dtd"
   xmlns="http://www.w3.org/2000/svg"
   xmlns:svg="http://www.w3.org/2000/svg">
  <defs
     id="defs53" />
  <sodipodi:namedview
     id="namedview51"
     pagecolor="#ffffff"
     bordercolor="#666666"
     borderopacity="1.0"
     inkscape:pageshadow="2"
     inkscape:pageopacity="0.0"
     inkscape:pagecheckerboard="0"
     showgrid="false"
     inkscape:zoom="0.61580177"
     inkscape:cx="314.22449"
     inkscape:cy="292.30185"
     inkscape:window-width="1310"
     inkscape:window-height="762"
     inkscape:window-x="0"
     inkscape:window-y="25"
     inkscape:window-maximized="0"
     inkscape:current-layer="svg49" />
  <radialGradient
     id="a"
     cx="221.44487"
     cy="226.33101"
     gradientTransform="matrix(1.353218,0,0,1.348928,-77.62935,-85.74693)"
     gradientUnits="userSpaceOnUse"
     r="300">
    <stop
       offset="0"
       stop-color="#fff"
       stop-opacity=".313726"
       id="stop2" />
    <stop
       offset=".19"
       stop-color="#fff"
       stop-opacity=".25098"
       id="stop4" />
    <stop
       offset=".60000002"
       stop-color="#6b6b6b"
       stop-opacity=".12549"
       id="stop6" />
    <stop
       offset="1"
       stop-opacity=".12549"
       id="stop8" />
  </radialGradient>
  <g
     fill-rule="evenodd"
     id="g45"
     transform="translate(29.999995)">
    <path
       d="m 300,658.5 c 0,0 298.50001,-112.32031 298.50001,-397.77183 0,-285.451524 0,-258.5516935 0,-258.5516935 H 1.5 V 260.72817 C 1.5,546.17969 300,658.5 300,658.5 Z"
       fill="#e20909"
       id="path11" />
    <g
       fill="#fcef3c"
       stroke="#000000"
       stroke-width="1.88094"
       transform="matrix(1.5949339,0,0,1.5949539,-3211.2472,-730.33219)"
       id="g41">
      <path
         d="m 2201.4845,500.70333 c -4.7445,0 -9.4057,0.2639 -14.0313,0.71875 -0.2868,12.97986 -10.9206,23.43752 -23.9687,23.4375 -5.1093,-8e-5 -9.8347,-1.63974 -13.7188,-4.375 -2.2056,-2.45229 -4.4786,-4.85284 -6.8125,-7.1875 -5.4822,2.48316 -10.7899,5.30529 -15.875,8.4375 1.8116,1.69271 3.5803,3.41917 5.3125,5.1875 0.9351,1.11745 1.9518,2.14558 3,3.15625 0.068,0.0658 0.1188,0.15342 0.1875,0.21875 22.38,24.1556 37.657,54.94886 42.5,89.125 -38.3346,-5.42977 -72.4383,-23.98976 -97.6562,-50.96875 -3.1307,5.08128 -5.9862,10.36584 -8.4688,15.84375 2.0007,1.9988 4.0376,3.96832 6.125,5.875 3.3757,4.13081 5.4062,9.41583 5.4063,15.15625 -1e-4,13.06932 -10.491,23.68449 -23.5,23.9375 -0.425,4.47328 -0.6251,9.00982 -0.625,13.59375 0,4.89355 0.2352,9.73331 0.7187,14.5 12.9652,0.30349 23.4062,10.93119 23.4063,23.96875 -1e-4,4.66188 -1.3433,9.01161 -3.6563,12.6875 -2.694,2.39906 -5.3195,4.86243 -7.875,7.4063 2.5682,5.6668 5.5205,11.1335 8.7813,16.375 25.1633,-26.77177 59.0893,-45.19557 97.2187,-50.62505 -5.5898,37.99185 -24.0768,71.78525 -50.875,96.81255 5.093,3.1371 10.4149,5.9515 15.9063,8.4375 2.038,-2.0283 4.0306,-4.0928 5.9687,-6.2188 4.1126,-3.3169 9.3155,-5.3124 15,-5.3125 13.0587,10e-5 23.6679,10.4742 23.9375,23.4688 4.4835,0.4269 8.999,0.6562 13.5938,0.6562 4.8935,0 9.7333,-0.2665 14.5,-0.75 0,-3e-4 0.031,3e-4 0.031,0 0.3203,-12.9502 10.9108,-23.375 23.9375,-23.375 4.6794,10e-5 9.0341,1.3899 12.7188,3.7188 2.3852,2.6766 4.844,5.2811 7.375,7.8125 5.6759,-2.571 11.1569,-5.5156 16.4062,-8.7813 -26.5665,-24.9688 -44.9135,-58.5778 -50.5,-96.34375 37.7562,5.58971 71.3818,23.91034 96.3438,50.46875 3.2615,-5.2462 6.1822,-10.7342 8.75,-16.4062 -2.3226,-2.32558 -4.7095,-4.58075 -7.1563,-6.7813 -2.7264,-3.88977 -4.3437,-8.61826 -4.3437,-13.71875 10e-5,-13.03745 10.441,-23.63489 23.4062,-23.9375 0.4548,-4.62558 0.6875,-9.31801 0.6875,-14.0625 0,-4.73391 -0.2347,-9.4157 -0.6875,-14.03125 -12.9653,-0.30344 -23.4062,-10.93116 -23.4062,-23.96875 10e-5,-5.12497 1.6243,-9.8592 4.375,-13.75 2.4304,-2.18711 4.8158,-4.43881 7.125,-6.75 -2.486,-5.49134 -5.3004,-10.81321 -8.4375,-15.90625 -1.7668,1.89537 -3.5818,3.7532 -5.4375,5.5625 -1.0978,0.93785 -2.1643,1.92066 -3.1563,2.96875 -23.9289,22.14845 -54.3982,37.33603 -88.1875,42.3125 5.4331,-38.12885 23.8756,-72.06549 50.6563,-97.21875 -5.2482,-3.26636 -10.7314,-6.20943 -16.4063,-8.78125 -2.3091,2.31661 -4.5599,4.69301 -6.75,7.125 -3.9111,2.77508 -8.6935,4.43741 -13.8437,4.4375 -13.0481,-1.7e-4 -23.6514,-10.45766 -23.9375,-23.4375 -4.6256,-0.45485 -9.3181,-0.71875 -14.0625,-0.71875 z m 0,14.40625 c 5.4852,14.65345 19.2193,25.25893 35.5312,26.25 -18.591,27.8166 -29.7948,60.96631 -30.7187,96.6875 35.7195,-0.91794 68.9048,-12.07803 96.7187,-30.65625 1.0096,16.28659 11.6475,29.97823 26.2813,35.46875 -14.6483,5.48332 -25.2839,19.1956 -26.2813,35.5 -27.8138,-18.5782 -60.9991,-29.76931 -96.7187,-30.6875 0.9235,35.7122 12.1362,68.87535 30.7187,96.68755 -16.1071,1.1604 -29.6178,11.7696 -35.0625,26.2812 -5.5304,-14.7738 -19.4178,-25.4737 -35.9062,-26.3125 18.5586,-27.8036 29.7016,-60.9561 30.625,-96.65625 -35.7135,0.92401 -68.8445,12.13636 -96.6563,30.71875 -1.1604,-16.10716 -11.7698,-29.6178 -26.2812,-35.0625 14.7805,-5.53279 25.4823,-19.43906 26.3125,-35.9375 27.8043,18.56783 60.9271,29.73277 96.625,30.65625 -0.9242,-35.72327 -12.0746,-68.8717 -30.6563,-96.6875 16.2943,-1.00304 29.9763,-11.61102 35.4688,-26.25 z"
         id="path13" />
      <g
         id="g39">
        <ellipse
           cx="1434.5"
           cy="387.86218"
           rx="20.5"
           ry="19.5"
           stroke-width="2.36631"
           transform="matrix(0.775253,0,0,0.81501,1089.4,186.8612)"
           id="ellipse15" />
        <ellipse
           cx="1434.5"
           cy="387.86218"
           rx="20.5"
           ry="19.5"
           stroke-width="2.36632"
           transform="matrix(0.671389,-0.387627,0.407505,0.705818,1010.393,804.0035)"
           id="ellipse17" />
        <ellipse
           cx="1434.5"
           cy="387.86218"
           rx="20.5"
           ry="19.5"
           stroke-width="2.36632"
           transform="matrix(-0.671389,-0.387627,0.407505,-0.705818,2936.607,1593.817)"
           id="ellipse19" />
        <ellipse
           cx="1434.5"
           cy="387.86218"
           rx="20.5"
           ry="19.5"
           stroke-width="2.36631"
           transform="matrix(-0.775254,-4.4e-7,4.6e-7,-0.815011,3313.6,1098.86)"
           id="ellipse21" />
        <ellipse
           cx="1434.5"
           cy="387.86218"
           rx="20.5"
           ry="19.5"
           stroke-width="2.36631"
           transform="matrix(-0.671389,0.387627,-0.407505,-0.705819,3392.606,481.716)"
           id="ellipse23" />
        <ellipse
           cx="1434.5"
           cy="387.86218"
           rx="20.5"
           ry="19.5"
           stroke-width="2.36631"
           transform="matrix(-0.387628,0.671389,-0.705819,-0.407505,3152.458,-92.24858)"
           id="ellipse25" />
        <ellipse
           cx="1434.5"
           cy="387.86218"
           rx="20.5"
           ry="19.5"
           stroke-width="2.36631"
           transform="matrix(-4.4e-7,0.775254,-0.815011,-4.6e-7,2657.502,-469.2423)"
           id="ellipse27" />
        <ellipse
           cx="1434.5"
           cy="387.86218"
           rx="20.5"
           ry="19.5"
           stroke-width="2.36631"
           transform="matrix(0.387627,0.671389,-0.705819,0.407505,2040.357,-548.2492)"
           id="ellipse29" />
        <ellipse
           cx="1434.5"
           cy="387.86218"
           rx="20.5"
           ry="19.5"
           stroke-width="2.36631"
           transform="matrix(0.671389,0.387628,-0.407505,0.705819,1466.393,-308.0995)"
           id="ellipse31" />
        <ellipse
           cx="1434.5"
           cy="387.86218"
           rx="20.5"
           ry="19.5"
           stroke-width="2.36632"
           transform="matrix(0.387627,-0.671389,0.705818,0.407505,1250.543,1377.968)"
           id="ellipse33" />
        <ellipse
           cx="1434.5"
           cy="387.86218"
           rx="20.5"
           ry="19.5"
           stroke-width="2.36631"
           transform="matrix(1.6e-7,-0.775253,0.81501,1.6e-7,1745.499,1754.96)"
           id="ellipse35" />
        <ellipse
           cx="1434.5"
           cy="387.86218"
           rx="20.5"
           ry="19.5"
           stroke-width="2.36632"
           transform="matrix(-0.387627,-0.671389,0.705818,-0.407505,2362.644,1833.966)"
           id="ellipse37" />
      </g>
    </g>
    <path
       d="m 300.00001,658.5 c 0,0 298.5,-112.32031 298.5,-397.77183 0,-285.451504 0,-258.5516835 0,-258.5516835 H 1.5 V 260.72817 C 1.5,546.17969 300.00001,658.5 300.00001,658.5 Z"
       fill="url(#a)"
       id="path43"
       style="fill:url(#a)" />
  </g>
  <path
     d="m 330,658.39715 c 0,0 -298.499995,-112.41841 -298.499995,-398.11925 0,-285.700818 0,-258.7775027 0,-258.7775027 H 628.5 V 260.2779 C 628.5,545.97874 330,658.39715 330,658.39715 Z"
     fill="none"
     stroke="#000000"
     stroke-width="3"
     id="path47" />
</svg>
