<?xml version="1.0" standalone="no"?>
<!DOCTYPE svg PUBLIC "-//W3C//DTD SVG 20010904//EN"
 "http://www.w3.org/TR/2001/REC-SVG-20010904/DTD/svg10.dtd">
<svg version="1.0" xmlns="http://www.w3.org/2000/svg"
 width="660.000000pt" height="660.000000pt" viewBox="0 0 660.000000 660.000000"
 preserveAspectRatio="xMidYMid meet">
<metadata>
Created by potrace 1.11, written by Peter Selinger 2001-2013
</metadata>
<g transform="translate(0.000000,660.000000) scale(0.100000,-0.100000)"
fill="#000000" stroke="none">
<path d="M300 5208 c1 -1450 3 -1532 44 -1805 169 -1104 826 -2077 1910 -2830
272 -189 687 -422 959 -538 l87 -37 88 37 c343 147 794 410 1117 652 1018 762
1615 1706 1759 2783 33 249 36 363 36 1743 l0 1387 -3000 0 -3000 0 0 -1392z
m76 1330 c-3 -13 -11 -50 -17 -83 -25 -132 -27 -133 -28 -12 l-1 117 26 0 c22
0 25 -3 20 -22z m489 0 c-13 -45 -57 -100 -102 -128 -46 -29 -111 -56 -118
-48 -2 2 2 26 11 53 16 55 12 90 -11 99 -42 16 -133 -59 -171 -142 -16 -34
-24 -42 -47 -42 l-29 0 7 53 c7 53 18 100 37 150 l10 27 210 0 209 0 -6 -22z
m1318 -37 c10 -30 21 -83 24 -118 6 -63 6 -63 -20 -63 -23 0 -32 10 -57 60
-49 96 -119 154 -166 136 -13 -5 -15 -16 -11 -54 4 -26 9 -59 13 -74 l6 -28
-43 15 c-24 9 -61 27 -82 41 -43 28 -97 98 -97 126 0 17 11 18 208 16 l207 -3
18 -54z m193 37 c-10 -40 -25 -122 -31 -170 -6 -46 -7 -48 -39 -48 l-33 0 -7
63 c-6 55 -16 104 -32 160 -5 15 3 17 71 17 75 0 77 -1 71 -22z m479 -15 c-28
-68 -104 -130 -187 -154 -33 -9 -32 -12 -12 57 25 88 -9 119 -84 72 -32 -20
-104 -117 -117 -159 -8 -23 -43 -25 -52 -3 -6 17 18 151 36 197 l11 27 210 0
210 0 -15 -37z m1328 -23 c10 -30 19 -82 20 -115 2 -55 0 -60 -20 -63 -18 -3
-27 7 -49 49 -36 72 -63 107 -100 130 -69 43 -102 11 -77 -74 8 -27 12 -51 9
-54 -10 -10 -65 9 -110 37 -49 32 -106 102 -106 132 0 17 11 18 208 16 l207
-3 18 -55z m197 54 c0 -3 -6 -32 -14 -63 -8 -31 -17 -82 -21 -113 -6 -58 -7
-58 -39 -58 l-33 0 -7 71 c-4 38 -14 91 -22 117 -7 26 -14 48 -14 50 0 1 34 2
75 2 41 0 75 -3 75 -6z m475 -31 c-21 -51 -69 -98 -129 -128 -60 -30 -91 -33
-81 -7 23 59 28 101 16 116 -41 49 -135 -19 -193 -138 -17 -36 -27 -46 -43
-44 -18 3 -20 9 -17 58 3 54 14 108 32 156 l10 24 210 0 210 0 -15 -37z m1314
-30 c11 -38 22 -89 26 -115 6 -46 5 -48 -19 -48 -20 0 -30 9 -46 40 -59 115
-174 186 -195 120 -5 -17 5 -73 22 -116 8 -20 -14 -17 -74 10 -63 30 -125 92
-140 140 l-11 36 209 0 208 0 20 -67z m100 -50 c-1 -104 -2 -112 -11 -68 -5
28 -16 78 -23 112 -19 78 -19 73 10 73 l25 0 -1 -117z m-4835 -214 c39 -71 56
-141 56 -234 0 -68 -6 -97 -41 -195 -75 -214 -88 -258 -95 -324 l-7 -66 -37 0
-37 0 -6 73 c-4 53 -22 125 -66 253 -33 98 -63 206 -67 240 -12 116 29 236
122 355 l49 61 51 -55 c28 -31 63 -79 78 -108z m2000 0 c39 -71 56 -141 56
-234 0 -68 -6 -97 -41 -195 -75 -214 -88 -258 -95 -324 l-7 -66 -37 0 -37 0
-6 73 c-4 54 -22 124 -68 258 -60 176 -63 188 -63 279 1 120 23 181 107 292
l61 81 51 -56 c28 -31 64 -79 79 -108z m1936 90 c94 -113 127 -214 117 -357
-4 -59 -16 -107 -52 -202 -64 -171 -74 -205 -81 -283 l-7 -68 -36 3 -36 3 -6
70 c-4 47 -27 133 -67 250 -33 99 -63 205 -67 237 -13 118 34 256 121 356 25
29 50 52 54 52 5 0 32 -27 60 -61z m-4815 -49 l0 -25 -112 -3 -113 -3 0 31 0
31 113 -3 112 -3 0 -25z m2003 -2 l3 -28 -255 0 -256 0 0 23 c0 13 3 27 7 31
4 3 117 5 252 4 l246 -3 3 -27z m1986 26 c9 -3 16 -17 16 -30 l0 -24 -255 0
-255 0 0 24 c0 13 6 27 13 29 18 8 462 8 481 1z m1724 -27 l3 -28 -113 3
c-101 3 -113 5 -116 22 -6 30 17 36 123 34 l100 -3 3 -28z m-5835 -99 c14 -24
44 -61 66 -83 23 -21 41 -42 41 -46 0 -11 -37 0 -106 31 l-61 28 -6 -77 c-2
-42 -12 -92 -20 -111 -15 -33 -15 -27 -16 133 l-1 167 39 0 c35 0 41 -4 64
-42z m2017 -19 c24 -33 57 -72 73 -85 48 -41 -2 -29 -139 32 -7 3 -13 -22 -17
-76 -5 -80 -37 -170 -63 -177 -26 -8 -63 115 -64 206 0 39 -3 52 -12 48 -79
-35 -135 -57 -147 -57 -7 0 10 25 38 56 29 31 58 69 67 85 l15 29 102 0 102 0
45 -61z m1985 20 c15 -23 45 -61 67 -85 22 -24 34 -44 27 -44 -8 0 -45 14 -84
30 -38 17 -71 30 -72 30 -2 0 -3 -24 -3 -53 0 -81 -42 -207 -69 -207 -19 0
-52 103 -58 181 -4 52 -10 78 -17 75 -68 -30 -134 -56 -145 -56 -7 0 10 25 38
56 29 31 58 69 67 85 l15 29 103 0 103 0 28 -41z m1835 -121 c0 -96 -4 -158
-9 -152 -13 13 -31 107 -31 160 l0 45 -32 -17 c-44 -23 -138 -54 -138 -46 0 4
22 29 49 56 27 27 57 64 67 82 16 29 24 34 56 34 l38 0 0 -162z m-5282 -204
c51 -21 107 -69 140 -122 38 -59 78 -179 85 -254 l6 -58 -29 0 c-24 0 -32 7
-48 43 -41 88 -102 147 -154 147 -37 0 -45 -34 -24 -97 20 -57 20 -53 -1 -53
-57 1 -161 77 -195 144 -28 53 -30 157 -5 203 36 66 129 86 225 47z m832 -2
c78 -57 81 -199 5 -298 -25 -33 -133 -94 -166 -94 -17 0 -17 3 -3 44 9 25 14
57 12 73 -2 23 -8 29 -35 31 -26 3 -41 -5 -76 -38 -25 -22 -58 -65 -73 -95
-22 -42 -34 -55 -51 -55 -20 0 -23 5 -23 41 0 98 56 243 121 314 87 95 216
129 289 77z m1176 -2 c113 -49 196 -190 218 -372 l7 -58 -30 0 c-27 0 -33 6
-58 55 -68 139 -206 188 -174 61 6 -24 13 -51 17 -60 18 -47 -116 13 -173 78
-41 47 -63 105 -63 168 0 38 29 107 53 127 41 33 127 34 203 1z m824 1 c90
-62 75 -249 -25 -326 -40 -30 -112 -64 -137 -65 -15 0 -16 3 -2 44 9 25 14 57
12 73 -2 23 -8 29 -35 31 -26 3 -41 -5 -76 -38 -25 -22 -58 -65 -73 -95 -22
-42 -34 -55 -51 -55 -20 0 -23 5 -23 43 0 100 61 255 127 321 86 86 212 116
283 67z m1173 -1 c69 -33 112 -74 150 -148 42 -80 67 -166 67 -234 0 -43 -2
-48 -22 -48 -18 0 -30 14 -53 58 -43 82 -96 132 -140 132 -28 0 -36 -4 -41
-24 -5 -22 3 -65 21 -108 9 -24 -11 -23 -68 1 -104 45 -160 126 -161 231 0 75
19 121 62 144 40 22 134 20 185 -4z m838 -5 c72 -65 65 -206 -14 -293 -40 -43
-124 -92 -159 -92 -15 0 -16 3 -2 35 20 48 18 102 -4 114 -41 22 -131 -51
-172 -140 -19 -39 -28 -49 -48 -49 -24 0 -25 1 -19 63 16 167 104 314 220 368
56 26 165 23 198 -6z m-3484 -447 c137 -140 175 -327 107 -524 -48 -141 -40
-134 -149 -134 l-94 0 -19 53 c-35 92 -59 181 -66 238 -9 70 14 182 49 248 30
54 111 161 123 161 4 0 26 -19 49 -42z m2025 -32 c126 -150 146 -323 64 -536
l-33 -85 -95 -3 -95 -3 -31 88 c-46 129 -52 159 -52 249 0 90 20 163 66 235
42 67 96 130 108 126 6 -2 37 -34 68 -71z m-3948 -71 c65 -109 78 -273 33
-405 -49 -144 -54 -152 -90 -148 l-32 3 -2 335 -2 335 34 -40 c20 -22 46 -58
59 -80z m5846 -215 l0 -330 -38 0 -39 0 -31 93 c-46 133 -54 188 -42 276 12
88 45 165 102 238 22 29 42 53 44 53 2 0 4 -148 4 -330z m-4705 280 l0 -25
-252 -3 -253 -2 0 30 0 30 253 -2 252 -3 0 -25z m2000 0 l0 -25 -251 -3 c-217
-2 -253 0 -258 13 -3 8 -3 22 0 30 5 13 41 15 258 13 l251 -3 0 -25z m2000 0
l0 -25 -252 -3 -253 -2 0 23 c0 13 3 27 7 31 4 3 117 5 252 4 l246 -3 0 -25z
m-4120 -101 c15 -23 45 -61 67 -85 22 -24 34 -44 27 -44 -11 0 -77 26 -145 56
-7 3 -13 -19 -17 -63 -6 -72 -28 -145 -53 -178 -15 -20 -15 -20 -30 0 -22 30
-44 113 -44 169 0 76 -7 81 -71 52 -30 -14 -67 -28 -84 -32 -28 -7 -26 -3 32
59 34 36 64 75 68 86 6 20 14 21 114 21 l108 0 28 -41z m2000 0 c15 -23 45
-61 67 -85 22 -24 34 -44 27 -44 -12 0 -67 22 -146 57 -9 4 -13 -7 -13 -35 0
-83 -44 -222 -70 -222 -21 0 -51 84 -61 168 -5 47 -11 88 -13 90 -2 2 -26 -8
-53 -21 -26 -14 -64 -28 -83 -32 l-35 -8 51 54 c27 30 59 69 69 87 l19 32 107
0 106 0 28 -41z m1989 12 c9 -16 39 -55 68 -86 58 -64 54 -65 -55 -18 -31 14
-59 24 -60 22 -2 -2 -8 -40 -15 -85 -10 -75 -46 -174 -63 -174 -4 0 -17 21
-30 47 -16 34 -24 71 -27 130 -3 46 -8 83 -12 83 -4 0 -32 -11 -61 -24 -30
-13 -67 -27 -83 -31 -27 -6 -25 -2 31 59 34 36 64 74 68 85 6 20 14 21 115 21
l109 0 15 -29z m-2700 -6 c85 -21 200 -71 264 -113 18 -11 20 -17 11 -29 -16
-19 -6 -26 38 -26 35 -1 45 -8 119 -88 53 -57 96 -116 123 -168 23 -44 49 -82
59 -84 9 -3 -84 -5 -208 -6 l-226 -1 -11 55 c-22 103 -74 145 -180 145 -78 0
-166 -42 -224 -108 -23 -26 -39 -38 -34 -27 41 105 49 144 48 245 0 78 -5 121
-20 168 l-21 62 84 0 c57 0 114 -8 178 -25z m-640 -143 c-7 -66 15 -192 46
-273 11 -27 20 -51 20 -53 0 -2 -28 24 -62 58 -72 72 -137 100 -226 99 l-54 0
74 74 c66 67 179 153 199 153 5 0 6 -26 3 -58z m-1274 -227 c31 -28 47 -63 51
-110 l4 -40 -202 -3 c-112 -1 -203 0 -203 3 0 3 12 23 26 45 30 45 76 83 136
111 56 26 156 23 188 -6z m1157 10 c20 -9 52 -27 71 -41 33 -26 92 -99 92
-116 0 -10 -397 -11 -404 0 -9 14 12 94 31 121 11 14 31 32 44 38 33 17 122
16 166 -2z m833 -1 c36 -22 59 -62 66 -118 l7 -46 -207 0 c-113 0 -206 4 -206
8 0 17 59 90 92 115 18 14 49 32 68 40 48 21 145 21 180 1z m1168 -4 c24 -11
57 -29 74 -41 30 -22 88 -94 88 -111 0 -4 -90 -8 -200 -8 l-200 0 0 44 c0 49
31 103 70 123 37 19 119 15 168 -7z m829 0 c38 -23 60 -61 64 -115 l4 -40
-190 -3 c-104 -1 -195 0 -203 3 -10 3 -5 16 17 48 72 105 225 158 308 107z
m1142 5 c56 -19 121 -67 150 -110 13 -20 22 -37 20 -39 -2 -2 -91 -7 -196 -11
l-193 -7 0 44 c0 109 100 165 219 123z m-2615 -276 c30 -23 33 -45 10 -77 -21
-31 -69 -30 -90 3 -20 31 -12 68 18 83 31 15 32 15 62 -9z m1616 -33 c0 -11
-19 -15 -25 -6 -3 5 1 10 9 10 9 0 16 -2 16 -4z m-1904 -51 c18 -19 23 -31 19
-48 -9 -27 -33 -47 -59 -47 -52 0 -76 75 -34 104 31 22 45 20 74 -9z m592 3
c31 -26 1 -98 -42 -98 -60 1 -81 79 -29 109 19 11 49 6 71 -11z m-374 -23 c19
-15 19 -15 -4 -40 -13 -14 -45 -33 -71 -42 l-46 -17 38 -70 c45 -86 76 -184
85 -271 l7 -64 -39 5 c-134 18 -183 35 -356 122 -4 2 -12 -14 -17 -35 -10 -35
-52 -93 -69 -93 -4 0 -13 10 -21 22 -11 18 -11 22 2 29 23 14 40 66 34 107 -6
33 -3 38 19 49 23 11 32 7 92 -31 79 -51 178 -91 245 -101 l48 -7 -7 38 c-12
71 -62 194 -104 256 -36 55 -40 65 -30 88 10 25 15 27 59 22 40 -4 52 0 77 22
34 30 33 30 58 11z m129 -11 c26 -22 38 -25 77 -22 42 4 48 2 61 -21 14 -24
13 -29 -18 -72 -45 -63 -87 -160 -106 -243 l-16 -69 43 6 c67 9 179 55 249
101 58 38 68 41 88 30 20 -10 23 -19 20 -58 -2 -37 3 -54 22 -79 22 -30 23
-35 10 -52 -14 -19 -15 -19 -43 12 -16 18 -32 45 -36 60 -12 56 -12 56 -44 33
-74 -53 -224 -104 -325 -112 l-40 -3 2 60 c3 76 35 182 82 271 l38 70 -46 17
c-26 9 -58 28 -71 42 -23 25 -23 25 -4 40 25 19 21 19 57 -11z m1557 -19 c0
-8 -7 -15 -15 -15 -8 0 -15 7 -15 15 0 8 7 15 15 15 8 0 15 -7 15 -15z m35
-175 c48 -158 51 -210 10 -210 -17 0 -24 7 -28 28 -4 15 -10 44 -14 65 -9 44
-25 50 -31 11 -2 -15 -7 -35 -13 -45 -5 -10 -9 -27 -9 -38 0 -15 -6 -21 -24
-21 -42 0 -39 48 10 208 24 79 44 146 44 149 0 22 16 -22 55 -147z m-119 -20
c-19 -58 -34 -95 -35 -83 -1 12 -6 25 -11 28 -6 4 6 38 31 86 23 44 43 78 45
76 2 -1 -12 -50 -30 -107z m154 31 c23 -47 36 -83 30 -86 -6 -3 -10 -16 -11
-28 0 -12 -16 25 -35 83 -38 118 -36 110 -29 110 3 0 23 -36 45 -79z m-2192 3
c42 -29 18 -104 -35 -104 -28 0 -63 33 -63 60 0 25 34 60 58 60 10 0 28 -7 40
-16z m1009 1 c30 -21 34 -51 11 -80 -22 -29 -44 -32 -76 -9 -28 19 -29 57 -2
84 24 24 38 25 67 5z m-2507 -181 l0 -75 28 3 c26 3 27 5 30 76 3 64 5 72 22
72 18 0 20 -7 20 -76 l0 -75 28 3 c26 3 27 5 30 76 3 64 5 72 22 72 18 0 20
-7 20 -75 l0 -75 30 0 30 0 0 75 c0 68 2 75 20 75 18 0 20 -7 20 -75 l0 -75
30 0 30 0 0 75 c0 68 2 75 20 75 18 0 20 -7 20 -85 l0 -85 -222 2 -223 3 -3
83 c-3 82 -3 82 23 82 25 0 25 -1 25 -76z m3480 71 c0 -3 -7 -22 -15 -42 -8
-19 -15 -44 -15 -54 0 -11 -4 -19 -10 -19 -15 0 -12 46 7 85 14 30 33 47 33
30z m300 -87 c0 -16 -4 -28 -10 -28 -5 0 -10 8 -10 19 0 10 -7 34 -15 54 -8
19 -11 37 -8 41 10 10 42 -55 43 -86z m-377 38 c6 -15 -1 -26 -15 -26 -4 0 -8
9 -8 20 0 23 15 27 23 6z m97 -12 c0 -8 -7 -14 -15 -14 -17 0 -18 2 -9 24 7
18 24 12 24 -10z m120 0 c0 -8 -7 -14 -15 -14 -15 0 -21 21 -9 33 10 9 24 -2
24 -19z m120 -6 c0 -5 -7 -8 -15 -8 -15 0 -20 21 -8 33 7 7 23 -11 23 -25z
m90 6 c0 -8 -7 -14 -15 -14 -15 0 -21 21 -9 33 10 9 24 -2 24 -19z m-363 -46
c-3 -8 -6 -5 -6 6 -1 11 2 17 5 13 3 -3 4 -12 1 -19z m40 0 c-3 -8 -6 -5 -6 6
-1 11 2 17 5 13 3 -3 4 -12 1 -19z m80 0 c-3 -8 -6 -5 -6 6 -1 11 2 17 5 13 3
-3 4 -12 1 -19z m40 0 c-3 -8 -6 -5 -6 6 -1 11 2 17 5 13 3 -3 4 -12 1 -19z
m80 0 c-3 -8 -6 -5 -6 6 -1 11 2 17 5 13 3 -3 4 -12 1 -19z m40 0 c-3 -8 -6
-5 -6 6 -1 11 2 17 5 13 3 -3 4 -12 1 -19z m50 0 c-3 -8 -6 -5 -6 6 -1 11 2
17 5 13 3 -3 4 -12 1 -19z m40 0 c-3 -8 -6 -5 -6 6 -1 11 2 17 5 13 3 -3 4
-12 1 -19z m18 -28 c4 -7 -82 -10 -250 -10 -168 0 -254 3 -250 10 4 6 98 10
250 10 152 0 246 -4 250 -10z m-453 -26 c7 -7 -24 -84 -34 -84 -10 0 -11 74
-1 83 8 8 28 9 35 1z m128 -1 c0 -3 -14 -28 -31 -54 -27 -42 -30 -56 -27 -104
2 -32 -1 -55 -7 -55 -6 0 -9 23 -7 56 3 40 -2 69 -17 104 -12 27 -21 51 -21
54 0 3 25 6 55 6 30 0 55 -3 55 -7z m130 -3 c0 -6 -9 -28 -20 -50 -13 -26 -20
-59 -20 -100 0 -47 -3 -60 -15 -60 -12 0 -15 13 -15 60 0 41 -7 74 -20 100
-11 22 -20 44 -20 50 0 6 24 10 55 10 31 0 55 -4 55 -10z m130 6 c0 -2 -9 -25
-20 -51 -12 -29 -20 -69 -20 -106 0 -32 -3 -59 -7 -59 -5 0 -6 25 -5 55 3 48
0 62 -27 104 -17 26 -31 51 -31 54 0 4 25 7 55 7 30 0 55 -2 55 -4z m58 -44
c4 -53 -8 -54 -29 -3 -18 42 -15 54 11 49 10 -2 16 -17 18 -46z m-3438 13 c0
-13 -32 -15 -230 -15 -198 0 -230 2 -230 15 0 13 32 15 230 15 198 0 230 -2
230 -15z m1020 -4 c26 -49 -1 -94 -53 -89 -22 2 -36 11 -46 29 -13 24 -13 29
2 53 22 33 80 37 97 7z m1168 7 c20 -20 15 -76 -7 -88 -41 -22 -91 2 -91 43 0
45 67 76 98 45z m-2199 -163 l1 -135 -105 0 -105 0 0 91 c0 90 0 91 34 125 43
43 90 46 135 8 17 -14 31 -21 31 -15 0 17 -62 51 -93 51 -36 0 -66 -15 -93
-47 l-22 -26 -29 33 c-22 25 -39 33 -74 37 -41 5 -50 2 -82 -27 l-37 -32 0 36
0 36 219 0 219 0 1 -135z m3161 48 c0 -52 0 -53 -30 -53 -28 0 -30 2 -30 40 0
23 7 55 16 72 16 30 17 31 30 13 8 -10 14 -43 14 -72z m135 57 c8 -16 15 -47
15 -70 0 -38 -2 -40 -30 -40 -29 0 -30 1 -30 51 0 44 13 89 25 89 3 0 11 -13
20 -30z m-265 -58 c0 -46 -3 -53 -17 -50 -22 4 -29 61 -13 103 16 41 30 16 30
-53z m385 6 c0 -42 -3 -53 -17 -56 -15 -3 -18 4 -18 46 0 28 3 58 6 67 12 30
28 -3 29 -57z m-3702 51 c47 -24 57 -48 57 -147 l0 -93 -102 3 -103 3 -3 74
c-3 88 10 126 52 152 35 22 67 24 99 8z m1376 -33 c13 -13 29 -41 36 -63 7
-21 17 -38 22 -38 4 0 40 17 80 38 75 38 182 71 267 81 l49 6 -6 -57 c-10 -92
-34 -171 -80 -264 l-43 -87 37 -11 c21 -6 52 -24 70 -38 l31 -27 -21 -17 c-21
-17 -23 -17 -49 8 -23 22 -34 24 -79 21 -49 -4 -53 -3 -63 22 -10 23 -7 33 26
81 20 30 46 77 59 105 26 58 59 183 51 191 -8 8 -133 -25 -186 -48 -25 -11
-72 -38 -106 -59 -55 -36 -63 -39 -86 -28 -24 12 -26 17 -21 58 5 39 2 50 -21
77 -23 28 -25 35 -14 52 16 26 20 26 47 -3z m657 -2 c39 -8 111 -35 160 -59
49 -25 92 -45 97 -45 4 0 7 9 7 20 0 27 22 70 49 94 21 19 22 19 35 0 12 -16
11 -22 -11 -48 -21 -26 -24 -37 -21 -78 5 -45 3 -50 -21 -62 -23 -13 -29 -11
-66 14 -60 41 -132 75 -209 99 -108 33 -107 34 -89 -46 18 -80 59 -173 103
-238 28 -41 30 -48 19 -74 -12 -26 -16 -27 -59 -23 -38 3 -51 0 -76 -21 -22
-19 -34 -23 -47 -16 -9 6 -17 16 -17 24 0 19 46 53 90 66 l37 11 -43 87 c-47
92 -71 171 -81 264 l-6 58 39 -6 c21 -3 71 -13 110 -21z m904 -104 c0 -5 -2
-10 -4 -10 -3 0 -8 5 -11 10 -3 6 -1 10 4 10 6 0 11 -4 11 -10z m1120 0 c0 -5
-2 -10 -4 -10 -3 0 -8 5 -11 10 -3 6 -1 10 4 10 6 0 11 -4 11 -10z m-4650 -60
l0 -60 35 0 35 0 0 60 c0 57 1 60 25 60 24 0 25 -3 25 -60 l0 -60 35 0 34 0 3
58 c3 50 6 57 25 60 20 3 22 -1 25 -55 l3 -58 38 -3 37 -3 0 61 c0 58 1 61 23
58 21 -3 22 -8 22 -83 l0 -80 -207 -3 -208 -2 0 85 c0 84 0 85 25 85 24 0 25
-3 25 -60z m1005 0 c0 -55 0 -55 33 -58 l32 -3 0 60 0 61 30 0 30 0 0 -61 0
-60 33 3 c32 3 32 3 33 58 1 52 2 55 27 58 27 3 27 2 27 -57 l0 -61 35 0 35 0
0 60 c0 57 1 60 25 60 25 0 25 -1 25 -85 l0 -85 -207 2 -208 3 -3 83 -3 83 28
-3 c27 -3 28 -5 28 -58z m3335 50 c0 -6 -92 -10 -255 -10 -163 0 -255 4 -255
10 0 6 92 10 255 10 163 0 255 -4 255 -10z m-785 -189 c19 -89 35 -169 35
-177 0 -11 -20 -14 -101 -14 -77 0 -100 3 -97 13 60 172 123 345 125 343 1 -1
18 -75 38 -165z m335 164 c0 -3 -10 -25 -22 -48 l-23 -42 -3 33 c-4 45 3 62
28 62 11 0 20 -2 20 -5z m120 0 c0 -3 -14 -27 -31 -55 -27 -43 -30 -58 -27
-105 1 -30 0 -55 -4 -55 -5 0 -8 27 -8 59 0 37 -8 77 -20 106 -11 26 -20 49
-20 51 0 2 25 4 55 4 30 0 55 -2 55 -5z m130 -5 c0 -6 -9 -28 -20 -50 -13 -26
-20 -59 -20 -100 0 -47 -3 -60 -15 -60 -12 0 -15 13 -15 60 0 41 -7 74 -20
100 -11 22 -20 44 -20 50 0 6 24 10 55 10 31 0 55 -4 55 -10z m130 6 c0 -2 -9
-25 -20 -51 -12 -29 -20 -69 -20 -106 0 -32 -3 -59 -7 -59 -5 0 -6 25 -5 55 3
47 0 62 -27 105 -17 28 -31 52 -31 55 0 3 25 5 55 5 30 0 55 -2 55 -4z m56
-10 c3 -8 4 -29 2 -48 l-3 -33 -23 42 c-12 23 -22 45 -22 48 0 12 41 4 46 -9z
m353 -171 c17 -82 31 -156 31 -162 0 -10 -27 -13 -101 -13 -86 0 -100 2 -95
15 3 8 31 87 62 176 34 97 60 156 64 147 4 -7 22 -80 39 -163z m-2697 118 c24
-21 23 -58 -2 -83 -27 -27 -55 -25 -79 6 -26 33 -26 49 -1 74 24 24 57 26 82
3z m1016 -8 c36 -46 -7 -106 -60 -86 -42 16 -50 59 -18 91 27 27 54 25 78 -5z
m1042 -72 c0 -52 0 -53 -30 -53 -28 0 -30 2 -30 40 0 23 7 55 16 72 16 30 17
31 30 13 8 -10 14 -43 14 -72z m135 57 c8 -16 15 -47 15 -70 0 -38 -2 -40 -30
-40 -29 0 -30 1 -30 51 0 44 13 89 25 89 3 0 11 -13 20 -30z m-265 -58 c0 -46
-3 -53 -17 -50 -22 4 -29 61 -13 103 16 41 30 16 30 -53z m385 6 c0 -42 -3
-53 -17 -56 -15 -3 -18 4 -18 46 0 28 3 58 6 67 12 30 28 -3 29 -57z m-3747
40 c-3 -20 -10 -23 -55 -26 -51 -3 -53 -2 -53 22 0 25 3 26 56 26 52 0 55 -1
52 -22z m210 0 c-3 -22 -8 -23 -100 -26 l-98 -3 0 26 0 25 101 0 c98 0 100 0
97 -22z m122 -3 c0 -24 -3 -25 -55 -25 -52 0 -55 1 -55 25 0 24 3 25 55 25 52
0 55 -1 55 -25z m-230 -60 l0 -25 -105 0 -105 0 0 25 0 25 105 0 105 0 0 -25z
m230 0 l0 -25 -110 0 -110 0 0 25 0 25 110 0 110 0 0 -25z m-510 0 c0 -13 -31
-15 -215 -15 -184 0 -215 2 -215 15 0 13 31 15 215 15 184 0 215 -2 215 -15z
m1008 -2 c3 -10 -45 -13 -217 -13 -191 0 -221 2 -221 15 0 13 28 15 217 13
162 -2 217 -6 221 -15z m-1378 -53 c-43 -36 -50 -37 -50 -7 0 32 7 37 49 37
l35 0 -34 -30z m200 -8 l-40 -39 -40 39 -41 38 81 0 81 0 -41 -38z m168 -2 l3
-35 -23 23 c-13 13 -32 30 -43 38 -19 13 -17 14 20 12 38 -3 40 -5 43 -38z
m1000 3 c4 -40 0 -40 -32 -8 -14 14 -31 25 -38 25 -7 -1 -1 -7 13 -15 42 -23
60 -74 57 -157 l-3 -73 -97 -3 -98 -3 0 90 c0 81 2 92 25 119 14 17 40 34 58
38 17 4 27 9 20 11 -20 7 -79 -26 -93 -52 -14 -26 -30 -33 -30 -15 0 13 -46
60 -59 60 -5 0 6 -15 25 -34 34 -34 34 -35 34 -125 l0 -91 -95 0 -95 0 0 89
c0 81 2 92 25 119 14 17 40 34 58 38 17 4 27 9 20 11 -17 6 -83 -24 -89 -42
-3 -8 -10 -15 -15 -15 -11 0 -12 53 -2 64 4 3 97 5 207 4 l201 -3 3 -32z
m-848 2 c0 -22 -4 -25 -40 -25 -36 0 -40 3 -40 25 0 23 4 25 40 25 36 0 40 -2
40 -25z m210 0 c0 -24 -2 -25 -75 -25 -73 0 -75 1 -75 25 0 24 2 25 75 25 73
0 75 -1 75 -25z m150 0 c0 -23 -4 -25 -45 -25 -41 0 -45 2 -45 25 0 23 4 25
45 25 41 0 45 -2 45 -25z m-774 -3 c35 -28 44 -56 44 -141 l0 -81 -95 0 -95 0
0 91 c0 87 1 92 29 120 34 34 84 39 117 11z m225 -11 c28 -28 29 -33 29 -120
l0 -91 -95 0 -95 0 0 81 c0 58 5 89 17 109 33 57 98 66 144 21z m3295 -43 c9
-29 19 -59 22 -65 2 -7 0 -13 -5 -13 -5 0 -15 24 -23 53 -7 28 -15 58 -17 65
-3 6 -3 12 0 12 3 0 13 -24 23 -52z m714 42 c0 -6 -92 -10 -255 -10 -163 0
-255 4 -255 10 0 6 92 10 255 10 163 0 255 -4 255 -10z m406 -42 c9 -29 19
-60 22 -68 3 -10 2 -12 -6 -5 -8 8 -42 106 -42 122 0 16 11 -6 26 -49z m-4226
-3 c0 -22 -4 -25 -40 -25 -36 0 -40 3 -40 25 0 23 4 25 40 25 36 0 40 -2 40
-25z m138 -2 c3 -21 -1 -23 -37 -23 -33 0 -41 4 -41 18 0 27 10 33 45 30 22
-2 31 -9 33 -25z m72 2 c0 -21 -5 -25 -30 -25 -25 0 -30 4 -30 25 0 21 5 25
30 25 25 0 30 -4 30 -25z m150 0 c0 -23 -4 -25 -45 -25 -37 0 -45 3 -45 18 0
27 9 32 52 32 34 0 38 -3 38 -25z m2984 10 c-6 -16 -24 -21 -24 -7 0 11 11 22
21 22 5 0 6 -7 3 -15z m107 -11 c-17 -22 -21 -42 -23 -113 l-1 -86 -6 96 c-4
59 -11 102 -20 112 -12 15 -9 17 29 17 l41 0 -20 -26z m138 10 c-9 -11 -16
-54 -20 -113 l-5 -96 -2 89 c-2 77 -5 93 -24 113 l-21 23 42 0 c39 0 42 -2 30
-16z m138 -2 c-13 -15 -17 -39 -17 -110 0 -55 -4 -92 -10 -92 -6 0 -10 37 -10
92 0 71 -4 95 -17 110 -15 17 -14 18 27 18 41 0 42 -1 27 -18z m81 -5 c5 -23
-10 -21 -26 4 -12 18 -11 20 5 17 10 -2 19 -11 21 -21z m-2134 -3 c20 -20 21
-68 1 -84 -8 -7 -26 -12 -40 -12 -34 0 -55 19 -55 50 0 52 59 81 94 46z m588
-1 c37 -34 15 -93 -35 -93 -40 0 -57 15 -57 51 0 52 54 77 92 42z m1123 7 c3
-6 -4 -10 -17 -10 -18 0 -20 2 -8 10 19 12 18 12 25 0z m153 -20 c3 -9 -2 -8
-18 3 -24 16 -60 8 -60 -13 0 -6 8 -5 19 2 35 22 51 -5 51 -83 l0 -69 -34 0
-34 0 -4 78 c-3 65 -1 80 15 94 20 19 57 12 65 -12z m120 14 c12 -8 22 -21 22
-27 0 -7 -5 -4 -11 6 -5 9 -22 17 -36 17 -14 0 -32 -8 -39 -17 -7 -10 -14 -13
-14 -6 0 11 37 43 50 43 3 0 16 -7 28 -16z m107 6 c3 -5 -1 -10 -10 -10 -9 0
-13 5 -10 10 3 6 8 10 10 10 2 0 7 -4 10 -10z m-377 -103 c3 -72 1 -77 -18
-77 -18 0 -20 6 -20 73 0 41 3 77 7 81 18 18 28 -7 31 -77z m273 56 c5 -15 9
-50 7 -77 -3 -49 -4 -51 -35 -54 l-33 -3 0 74 c0 40 3 77 7 80 15 16 44 5 54
-20z m113 11 c3 -9 6 -45 6 -80 0 -62 -1 -64 -25 -64 -24 0 -25 2 -25 64 0 72
6 96 25 96 7 0 16 -7 19 -16z m-3774 -29 c0 -22 -4 -25 -40 -25 -36 0 -40 3
-40 25 0 23 4 25 40 25 36 0 40 -2 40 -25z m210 0 c0 -24 -2 -25 -75 -25 -66
0 -75 2 -75 18 0 29 8 32 82 32 66 0 68 -1 68 -25z m150 0 c0 -23 -4 -25 -45
-25 -37 0 -45 3 -45 18 0 27 9 32 52 32 34 0 38 -3 38 -25z m1617 -31 c15 -24
15 -29 2 -53 -11 -20 -22 -26 -49 -26 -27 0 -38 6 -49 26 -13 24 -13 29 2 53
12 18 26 26 47 26 21 0 35 -8 47 -26z m1173 -4 c0 -6 -57 -10 -150 -10 -93 0
-150 4 -150 10 0 6 57 10 150 10 93 0 150 -4 150 -10z m1120 0 c0 -6 -57 -10
-151 -10 -97 0 -148 4 -144 10 4 6 65 10 151 10 89 0 144 -4 144 -10z m-3912
-33 l3 -28 -108 3 c-102 3 -108 4 -111 25 -4 25 14 28 143 28 69 0 70 0 73
-28z m-228 -2 l0 -25 -105 0 -105 0 0 25 0 25 105 0 105 0 0 -25z m2783 -2
c-31 -4 -33 -7 -33 -44 0 -37 2 -39 30 -39 25 0 30 -4 30 -25 0 -21 -5 -25
-30 -25 -28 0 -30 -3 -30 -34 0 -30 3 -35 28 -38 19 -2 28 -9 30 -25 3 -20 -1
-23 -27 -23 -26 0 -30 -4 -34 -32 -2 -18 -5 33 -5 114 -1 80 -5 153 -8 162 -5
13 1 16 37 14 37 -1 39 -2 12 -5z m115 0 c-16 -2 -40 -2 -55 0 -16 2 -3 4 27
4 30 0 43 -2 28 -4z m75 0 c-7 -2 -21 -2 -30 0 -10 3 -4 5 12 5 17 0 24 -2 18
-5z m930 0 c-31 -4 -33 -7 -33 -44 0 -37 2 -39 30 -39 25 0 30 -4 30 -25 0
-21 -5 -25 -30 -25 -28 0 -30 -3 -30 -34 0 -30 3 -35 28 -38 19 -2 28 -9 30
-25 3 -20 -1 -23 -32 -23 l-36 0 0 130 0 130 38 -2 c36 -1 36 -1 5 -5z m115 0
c-16 -2 -40 -2 -55 0 -16 2 -3 4 27 4 30 0 43 -2 28 -4z m75 0 c-7 -2 -21 -2
-30 0 -10 3 -4 5 12 5 17 0 24 -2 18 -5z m-1233 -49 c0 -24 -2 -25 -47 -22
-41 3 -48 6 -51 26 -3 20 0 22 47 22 48 0 51 -2 51 -26z m118 4 c-3 -20 -10
-23 -50 -26 -46 -3 -48 -2 -48 22 0 24 3 26 51 26 47 0 50 -2 47 -22z m1002
-4 c0 -24 -2 -25 -47 -22 -41 3 -48 6 -51 26 -3 20 0 22 47 22 48 0 51 -2 51
-26z m118 4 c-3 -20 -10 -23 -50 -26 -46 -3 -48 -2 -48 22 0 24 3 26 51 26 47
0 50 -2 47 -22z m-4200 -10 c-3 -22 -6 -23 -140 -25 -119 -2 -138 0 -138 13 0
13 13 15 85 12 65 -3 85 -1 85 9 0 9 17 13 56 13 52 0 55 -1 52 -22z m212 -3
l0 -25 -100 0 -100 0 0 25 0 25 100 0 100 0 0 -25z m120 12 c0 -9 23 -12 83
-12 46 0 83 -4 85 -10 1 -6 -51 -11 -138 -12 l-140 -2 0 24 c0 24 3 25 55 25
38 0 55 -4 55 -13z m-822 -19 c-5 -14 -70 -23 -95 -14 -28 11 -1 26 48 26 36
0 49 -4 47 -12z m200 0 c-3 -9 -34 -14 -96 -16 -77 -2 -92 0 -92 13 0 12 16
15 96 15 72 0 95 -3 92 -12z m997 -3 c0 -6 -39 -11 -92 -13 -79 -2 -93 0 -93
13 0 13 14 15 93 13 53 -2 92 -7 92 -13z m115 0 c0 -11 -12 -15 -50 -15 -38 0
-50 4 -50 15 0 11 12 15 50 15 38 0 50 -4 50 -15z m1090 -190 c0 -193 0 -195
-22 -195 -20 0 -21 2 -15 98 4 53 7 141 7 195 0 79 3 97 15 97 13 0 15 -28 15
-195z m1880 175 c0 -6 -92 -10 -255 -10 -163 0 -255 4 -255 10 0 6 92 10 255
10 163 0 255 -4 255 -10z m-770 -25 c0 -23 -3 -25 -50 -25 -47 0 -50 2 -50 25
0 23 3 25 50 25 47 0 50 -2 50 -25z m70 15 c-13 -8 -13 -10 -1 -10 11 0 9 -4
-5 -15 -28 -21 -44 -18 -44 10 0 22 4 25 33 25 24 0 28 -3 17 -10z m1050 -16
c0 -24 -2 -25 -47 -22 -41 3 -48 6 -51 26 -3 20 0 22 47 22 48 0 51 -2 51 -26z
m70 16 c-13 -8 -13 -10 -1 -10 11 0 9 -4 -5 -15 -28 -21 -44 -18 -44 10 0 22
4 25 33 25 24 0 28 -3 17 -10z m-4600 -25 c0 -25 0 -25 -99 -25 -100 0 -118 6
-107 35 4 12 27 15 106 15 l100 0 0 -25z m210 0 l0 -25 -100 0 -100 0 0 25 0
25 100 0 100 0 0 -25z m280 0 l0 -25 -110 0 -110 0 0 25 0 25 110 0 110 0 0
-25z m240 0 l0 -25 -115 0 -115 0 0 25 0 25 115 0 115 0 0 -25z m480 0 l0 -24
-210 0 -210 0 0 24 0 24 210 0 210 0 0 -24z m2494 0 c-6 -16 -24 -21 -24 -7 0
11 11 22 21 22 5 0 6 -7 3 -15z m110 -6 c-14 -16 -20 -42 -25 -107 l-6 -87 -1
85 c-1 59 -7 92 -18 108 -15 22 -15 22 27 22 l42 0 -19 -21z m133 3 c-13 -14
-17 -41 -19 -108 l-2 -89 -5 93 c-5 77 -9 96 -25 108 -18 13 -16 14 24 14 41
0 42 -1 27 -18z m147 6 c-5 -8 -2 -9 9 -5 9 3 19 2 21 -2 3 -5 -7 -8 -22 -7
l-27 1 -3 -92 c-4 -118 -22 -123 -22 -6 0 66 -4 91 -17 105 -15 17 -14 18 26
18 30 0 40 -3 35 -12z m73 -3 c9 -25 -2 -27 -22 -5 -17 18 -17 20 -1 20 9 0
19 -7 23 -15z m-423 -3 c2 -4 -4 -9 -15 -9 -11 -1 -17 2 -14 8 7 11 22 12 29
1z m137 -2 c10 -6 19 -16 19 -22 0 -6 -9 -3 -20 7 -18 17 -21 17 -45 1 -28
-19 -33 -15 -9 8 18 19 28 20 55 6z m137 -6 c12 -8 22 -19 22 -25 0 -5 -9 0
-20 11 -11 11 -24 20 -30 20 -5 0 -19 -9 -30 -20 -11 -11 -20 -16 -20 -11 0
10 39 41 50 41 3 0 16 -7 28 -16z m-658 -39 c0 -23 -3 -25 -50 -25 -47 0 -50
2 -50 25 0 23 3 25 50 25 47 0 50 -2 50 -25z m108 3 c-3 -20 -10 -23 -50 -26
-46 -3 -48 -2 -48 22 0 24 3 26 51 26 47 0 50 -2 47 -22z m280 -61 c3 -72 1
-77 -18 -77 -18 0 -20 6 -20 73 0 41 3 77 7 81 18 18 28 -7 31 -77z m136 67
c3 -9 6 -45 6 -80 l0 -64 -35 0 -35 0 0 68 c0 40 5 73 12 80 17 17 45 15 52
-4z m137 -11 c5 -15 9 -50 7 -77 -3 -49 -4 -51 -35 -54 l-33 -3 0 74 c0 40 3
77 7 80 15 16 44 5 54 -20z m113 11 c3 -9 6 -45 6 -80 0 -62 -1 -64 -25 -64
-24 0 -25 2 -25 64 0 72 6 96 25 96 7 0 16 -7 19 -16z m346 -9 c0 -23 -3 -25
-50 -25 -47 0 -50 2 -50 25 0 23 3 25 50 25 47 0 50 -2 50 -25z m108 3 c-3
-20 -10 -23 -50 -26 -46 -3 -48 -2 -48 22 0 24 3 26 51 26 47 0 50 -2 47 -22z
m-3380 -30 c2 -22 -1 -38 -7 -38 -6 0 -11 12 -11 26 0 35 -23 26 -30 -12 l-6
-29 -7 33 c-8 40 -30 39 -35 -1 -4 -34 -22 -25 -22 9 0 35 -23 25 -30 -12 l-6
-29 -7 33 c-8 40 -30 39 -35 -1 -4 -34 -22 -25 -22 9 0 35 -23 25 -30 -12 l-6
-29 -7 33 c-8 40 -30 38 -37 -4 l-6 -29 -7 33 c-8 40 -30 38 -37 -4 l-6 -29
-7 33 c-8 40 -30 38 -37 -4 l-6 -29 -7 33 c-8 40 -30 38 -37 -4 l-6 -29 -7 33
c-8 40 -30 38 -37 -4 l-6 -29 -7 33 c-8 40 -30 38 -37 -4 l-6 -29 -7 33 c-8
40 -30 38 -37 -4 l-6 -29 -7 33 c-8 40 -30 38 -37 -4 l-6 -29 -7 33 c-8 40
-30 38 -37 -4 l-6 -29 -7 33 c-8 40 -30 38 -37 -4 l-6 -29 -7 33 c-8 40 -30
38 -37 -4 l-6 -29 -7 33 c-8 40 -30 38 -37 -4 l-6 -29 -7 33 c-8 40 -30 38
-37 -4 l-6 -29 -7 33 c-8 40 -30 38 -37 -4 l-6 -29 -7 33 c-8 40 -30 38 -37
-4 l-6 -29 -7 33 c-8 41 -30 38 -36 -4 l-4 -29 -6 30 c-4 17 -13 30 -21 30 -9
0 -17 -13 -20 -30 l-6 -30 -7 33 c-8 41 -30 38 -36 -4 l-4 -29 -6 30 c-4 17
-13 30 -21 30 -9 0 -17 -13 -20 -30 l-6 -30 -7 33 c-8 41 -30 38 -36 -4 l-4
-29 -6 30 c-4 17 -13 30 -21 30 -9 0 -17 -12 -19 -30 l-4 -30 -6 30 c-4 17
-13 30 -21 30 -9 0 -17 -12 -19 -30 l-4 -30 -6 30 c-8 38 -35 40 -39 2 -2 -15
-8 -25 -13 -22 -10 7 -12 68 -2 78 3 4 322 6 707 5 l701 -3 3 -37z m2202 -33
c0 -23 -3 -25 -50 -25 -47 0 -50 2 -50 25 0 23 3 25 50 25 47 0 50 -2 50 -25z
m70 15 c-12 -8 -12 -10 5 -10 20 -1 20 -1 1 -15 -28 -21 -66 -19 -66 3 0 26 9
32 44 32 24 0 27 -3 16 -10z m1050 -15 c0 -23 -3 -25 -50 -25 -47 0 -50 2 -50
25 0 23 3 25 50 25 47 0 50 -2 50 -25z m70 15 c-12 -8 -12 -10 5 -10 20 -1 20
-1 1 -15 -36 -27 -75 -14 -62 20 3 9 19 15 38 15 25 0 29 -3 18 -10z m-4780
-66 c0 -16 -5 -24 -12 -21 -20 6 -18 47 3 47 5 0 9 -12 9 -26z m140 1 c0 -24
-2 -25 -65 -25 -63 0 -65 1 -65 25 0 24 2 25 65 25 63 0 65 -1 65 -25z m138 3
c-3 -20 -10 -23 -60 -26 -56 -3 -58 -2 -58 23 0 24 2 25 61 25 57 0 60 -1 57
-22z m142 -3 c0 -24 -2 -25 -65 -25 -63 0 -65 1 -65 25 0 24 2 25 65 25 63 0
65 -1 65 -25z m150 0 c0 -24 -2 -25 -70 -25 -68 0 -70 1 -70 25 0 24 2 25 70
25 68 0 70 -1 70 -25z m60 0 c0 -20 -5 -25 -25 -25 -20 0 -25 5 -25 25 0 20 5
25 25 25 20 0 25 -5 25 -25z m220 0 c0 -24 -3 -25 -60 -25 -57 0 -60 1 -60 25
0 24 3 25 60 25 57 0 60 -1 60 -25z m150 0 c0 -26 -1 -26 -67 -23 -62 3 -68 5
-71 26 -3 21 0 22 67 22 69 0 71 -1 71 -25z m130 0 c0 -24 -3 -25 -60 -25 -57
0 -60 1 -60 25 0 24 3 25 60 25 57 0 60 -1 60 -25z m150 0 c0 -24 -2 -25 -70
-25 -68 0 -70 1 -70 25 0 24 2 25 70 25 68 0 70 -1 70 -25z m110 0 c0 -23 -3
-25 -50 -25 -47 0 -50 2 -50 25 0 23 3 25 50 25 47 0 50 -2 50 -25z m-673 -1
c2 -6 -5 -22 -16 -35 l-20 -24 -22 22 c-30 30 -19 55 23 51 17 -2 33 -8 35
-14z m2813 -9 c0 -23 -3 -25 -50 -25 -42 0 -50 3 -50 18 0 27 9 32 57 32 39 0
43 -2 43 -25z m114 9 c10 -26 -2 -34 -50 -34 -40 0 -44 2 -44 25 0 23 4 25 44
25 31 0 46 -5 50 -16z m893 -21 c-3 -10 -5 -4 -5 12 0 17 2 24 5 18 2 -7 2
-21 0 -30z m113 12 c0 -23 -3 -25 -50 -25 -42 0 -50 3 -50 18 0 27 9 32 57 32
39 0 43 -2 43 -25z m115 0 c0 -17 -8 -20 -47 -23 -46 -3 -48 -2 -48 23 0 25 2
26 48 23 39 -3 47 -6 47 -23z m-1085 1 c0 -3 -4 -8 -10 -11 -5 -3 -10 -1 -10
4 0 6 5 11 10 11 6 0 10 -2 10 -4z m1120 0 c0 -3 -4 -8 -10 -11 -5 -3 -10 -1
-10 4 0 6 5 11 10 11 6 0 10 -2 10 -4z m-4740 -57 c0 -29 -1 -30 -42 -27 -42
3 -48 12 -39 53 1 3 19 5 41 5 38 0 40 -2 40 -31z m150 1 l0 -30 -65 0 -65 0
0 30 0 30 65 0 65 0 0 -30z m130 0 l0 -31 -57 3 c-55 3 -58 4 -61 31 -3 27 -3
27 57 27 l61 0 0 -30z m150 0 l0 -30 -65 0 c-68 0 -85 11 -71 45 4 11 22 15
71 15 l65 0 0 -30z m90 0 c-19 -16 -45 -29 -57 -30 -19 0 -23 5 -23 30 0 30 0
30 57 30 l57 0 -34 -30z m200 20 c0 -5 -4 -10 -9 -10 -6 0 -13 5 -16 10 -3 6
1 10 9 10 9 0 16 -4 16 -10z m140 -20 c0 -30 0 -30 -59 -30 -44 0 -60 4 -65
16 -15 39 -8 44 59 44 l65 0 0 -30z m145 0 c0 -24 -3 -25 -67 -28 l-68 -3 0
31 0 31 68 -3 c64 -3 67 -4 67 -28z m135 0 l0 -30 -60 0 -60 0 0 30 0 30 60 0
60 0 0 -30z m140 0 l0 -30 -65 0 -65 0 0 30 0 30 65 0 65 0 0 -30z m45 0 c0
-27 -22 -39 -31 -16 -8 22 3 49 19 43 6 -2 12 -14 12 -27z m-735 13 c-1 -5
-15 -17 -32 -28 -62 -39 -73 -72 -76 -243 -2 -88 -8 -150 -13 -146 -5 3 -9 69
-9 146 0 158 13 203 72 253 28 24 58 33 58 18z m130 -32 c50 -53 61 -101 58
-254 -4 -182 -22 -168 -28 23 -5 140 -7 159 -28 193 -13 20 -27 37 -30 37 -4
0 -18 9 -32 20 l-25 20 24 0 c15 0 38 -14 61 -39z m3688 22 c-196 -2 -520 -2
-720 0 -200 1 -39 2 357 2 396 0 559 -1 363 -2z m-1036 -35 c-7 -7 -12 -20
-12 -30 0 -10 -4 -18 -10 -18 -5 0 -10 14 -10 30 0 24 4 30 22 30 17 0 19 -3
10 -12z m94 -4 c-9 -8 -16 -22 -16 -30 0 -24 -15 -15 -27 16 -11 30 -11 30 24
30 31 0 33 -1 19 -16z m86 -14 c-19 -34 -32 -39 -32 -12 0 10 -5 23 -12 30 -9
9 -4 12 25 12 l36 0 -17 -30z m100 18 c-7 -7 -12 -20 -12 -30 0 -27 -13 -22
-32 12 l-17 30 36 0 c29 0 34 -3 25 -12z m85 -18 c-12 -31 -27 -40 -27 -16 0
8 -7 22 -16 30 -14 15 -12 16 19 16 35 0 35 0 24 -30z m99 14 c-9 -8 -16 -22
-16 -30 0 -8 -4 -14 -10 -14 -5 0 -10 8 -10 18 0 10 -5 23 -12 30 -9 9 -4 12
26 12 34 0 36 -1 22 -16z m87 -11 c-9 -16 -18 -29 -19 -31 -1 -2 -9 11 -17 27
l-15 31 34 0 34 0 -17 -27z m99 15 c-7 -7 -12 -20 -12 -30 0 -10 -4 -18 -10
-18 -5 0 -10 5 -10 12 0 6 -7 20 -17 30 -15 17 -14 18 22 18 30 0 36 -3 27
-12z m94 -4 c-9 -8 -16 -22 -16 -30 0 -8 -4 -14 -10 -14 -5 0 -10 6 -10 14 0
8 -7 22 -16 30 -14 15 -12 16 26 16 38 0 40 -1 26 -16z m91 -2 c-10 -10 -17
-24 -17 -30 0 -7 -4 -12 -10 -12 -5 0 -10 8 -10 18 0 10 -5 23 -12 30 -9 9 -3
12 27 12 36 0 37 -1 22 -18z m86 -13 c-8 -16 -16 -29 -17 -27 -1 2 -10 15 -19
31 l-17 27 34 0 34 0 -15 -31z m99 19 c-7 -7 -12 -20 -12 -30 0 -10 -4 -18
-10 -18 -5 0 -10 6 -10 14 0 8 -7 22 -16 30 -14 15 -12 16 22 16 30 0 35 -3
26 -12z m94 -4 c-9 -8 -16 -22 -16 -30 0 -24 -15 -15 -27 16 -11 30 -11 30 24
30 31 0 33 -1 19 -16z m86 -14 c-19 -34 -32 -39 -32 -12 0 10 -5 23 -12 30 -9
9 -4 12 25 12 l36 0 -17 -30z m100 18 c-7 -7 -12 -20 -12 -30 0 -10 -4 -18
-10 -18 -5 0 -10 5 -10 12 0 6 -7 20 -17 30 -15 17 -14 18 22 18 30 0 36 -3
27 -12z m78 -18 c0 -16 -4 -30 -10 -30 -5 0 -10 6 -10 14 0 8 -7 22 -16 30
-14 15 -13 16 10 16 22 0 26 -4 26 -30z m-4810 -15 c0 -14 -4 -25 -10 -25 -5
0 -10 11 -10 25 0 14 5 25 10 25 6 0 10 -11 10 -25z m140 0 c0 -24 -2 -25 -65
-25 -63 0 -65 1 -65 25 0 24 2 25 65 25 63 0 65 -1 65 -25z m138 3 c-3 -20
-10 -23 -60 -26 -56 -3 -58 -2 -58 23 0 24 2 25 61 25 57 0 60 -1 57 -22z
m142 -3 c0 -24 -2 -25 -65 -25 -63 0 -65 1 -65 25 0 24 2 25 65 25 63 0 65 -1
65 -25z m120 18 c-1 -25 -30 -43 -69 -43 -37 0 -41 2 -41 25 0 24 3 25 55 25
30 0 55 -3 55 -7z m310 -20 c-1 -27 -1 -27 -15 -9 -19 25 -19 36 0 36 10 0 15
-10 15 -27z m150 2 c0 -26 -1 -26 -67 -23 -62 3 -68 5 -71 26 -3 21 0 22 67
22 69 0 71 -1 71 -25z m130 0 c0 -24 -3 -25 -60 -25 -57 0 -60 1 -60 25 0 24
3 25 60 25 57 0 60 -1 60 -25z m150 0 c0 -24 -2 -25 -70 -25 -68 0 -70 1 -70
25 0 24 2 25 70 25 68 0 70 -1 70 -25z m110 0 c0 -23 -3 -25 -50 -25 -47 0
-50 2 -50 25 0 23 3 25 50 25 47 0 50 -2 50 -25z m-1330 -65 c0 -28 -2 -30
-39 -30 -33 0 -39 3 -43 25 -7 32 -2 35 44 35 36 0 38 -2 38 -30z m150 0 l0
-30 -65 0 -65 0 0 30 0 30 65 0 65 0 0 -30z m130 0 l0 -30 -60 0 -60 0 0 30 0
30 60 0 60 0 0 -30z m150 0 l0 -30 -65 0 c-49 0 -67 4 -71 15 -14 34 3 45 71
45 l65 0 0 -30z m17 -17 c-3 -10 -5 -2 -5 17 0 19 2 27 5 18 2 -10 2 -26 0
-35z m413 17 c0 -28 -3 -30 -35 -30 -32 0 -35 2 -35 30 0 28 3 30 35 30 32 0
35 -2 35 -30z m145 0 c0 -24 -3 -25 -67 -28 l-68 -3 0 31 0 31 68 -3 c64 -3
67 -4 67 -28z m135 0 l0 -30 -60 0 -60 0 0 30 0 30 60 0 60 0 0 -30z m140 0
l0 -30 -65 0 -65 0 0 30 0 30 65 0 65 0 0 -30z m48 -3 c2 -18 -1 -27 -11 -27
-14 0 -29 44 -19 55 12 12 27 -3 30 -28z m2092 13 c0 -17 -7 -20 -40 -20 -33
0 -40 3 -40 20 0 17 7 20 40 20 33 0 40 -3 40 -20z m120 0 c0 -18 -7 -20 -55
-20 -48 0 -55 2 -55 20 0 18 7 20 55 20 48 0 55 -2 55 -20z m120 0 c0 -18 -7
-20 -55 -20 -48 0 -55 2 -55 20 0 18 7 20 55 20 48 0 55 -2 55 -20z m120 0 c0
-17 -7 -20 -49 -20 -49 0 -68 10 -56 30 3 6 28 10 56 10 42 0 49 -3 49 -20z
m35 10 c-3 -5 -10 -10 -16 -10 -5 0 -9 5 -9 10 0 6 7 10 16 10 8 0 12 -4 9
-10z m135 -7 c55 -32 70 -77 70 -212 0 -74 -4 -121 -10 -121 -6 0 -10 48 -10
123 0 140 -14 177 -76 203 -32 14 -39 13 -71 -3 -59 -29 -73 -69 -73 -205 0
-72 -4 -118 -10 -118 -17 0 -13 236 5 269 37 73 114 101 175 64z m70 -3 c0
-11 -6 -20 -13 -20 -8 0 -22 9 -32 20 -18 20 -17 20 13 20 25 0 32 -4 32 -20z
m120 12 c0 -18 -26 -32 -62 -32 -31 0 -38 4 -38 20 0 17 7 20 50 20 28 0 50
-4 50 -8z m151 -19 c17 -15 38 -42 45 -60 17 -39 20 -263 4 -263 -6 0 -10 45
-10 115 0 138 -16 181 -76 210 -34 16 -39 16 -71 1 -59 -28 -73 -65 -73 -198
0 -67 -4 -119 -10 -123 -17 -11 -13 231 5 264 41 80 125 105 186 54z m69 7 c0
-13 -7 -20 -18 -20 -11 0 -27 9 -37 20 -18 20 -17 20 18 20 30 0 37 -4 37 -20z
m120 0 c0 -18 -7 -20 -55 -20 -48 0 -55 2 -55 20 0 18 7 20 55 20 48 0 55 -2
55 -20z m120 -1 c0 -18 -5 -20 -52 -17 -41 2 -54 7 -56 21 -3 14 5 17 52 17
50 0 56 -2 56 -21z m120 1 c0 -17 -7 -20 -50 -20 -43 0 -50 3 -50 20 0 17 7
20 50 20 43 0 50 -3 50 -20z m27 -12 c-3 -7 -5 -2 -5 12 0 14 2 19 5 13 2 -7
2 -19 0 -25z m-2272 -18 c0 -11 -15 -16 -59 -18 -59 -3 -84 7 -71 28 11 18
130 9 130 -10z m1463 4 c26 -18 55 -71 47 -84 -7 -11 -178 -14 -188 -4 -10 11
15 64 40 84 31 24 70 26 101 4z m342 -14 c15 -16 30 -38 33 -49 4 -18 -2 -20
-90 -23 -52 -2 -97 0 -99 4 -8 12 24 66 48 82 36 25 76 20 108 -14z m-2289
-16 c68 -20 130 -56 185 -106 162 -150 196 -406 80 -601 l-31 -52 -60 -3 c-75
-4 -92 9 -97 68 l-3 45 99 6 c89 5 101 8 119 30 15 19 18 35 15 77 -4 45 -14
66 -66 141 -33 48 -64 104 -67 125 -11 54 -44 97 -105 134 -49 29 -61 32 -135
32 -72 0 -88 -4 -165 -40 -65 -30 -97 -40 -137 -40 -78 0 -99 -29 -67 -92 13
-26 14 -37 4 -75 -7 -24 -16 -46 -20 -48 -10 -6 -69 -183 -79 -238 l-8 -42
-24 50 c-21 44 -24 64 -24 170 0 102 4 129 24 178 51 127 160 233 286 276 74
25 198 28 276 5z m1369 -4 c0 -11 -4 -20 -10 -20 -5 0 -10 9 -10 20 0 11 5 20
10 20 6 0 10 -9 10 -20z m120 0 c0 -18 -7 -20 -55 -20 -48 0 -55 2 -55 20 0
18 7 20 55 20 48 0 55 -2 55 -20z m120 0 c0 -18 -7 -20 -55 -20 -48 0 -55 2
-55 20 0 18 7 20 55 20 48 0 55 -2 55 -20z m120 0 c0 -18 -7 -20 -55 -20 -48
0 -55 2 -55 20 0 18 7 20 55 20 48 0 55 -2 55 -20z m43 0 c-3 -11 -12 -20 -19
-20 -8 0 -14 9 -14 20 0 13 7 20 19 20 14 0 18 -5 14 -20z m317 0 c0 -15 -7
-20 -25 -20 -14 0 -29 8 -35 20 -10 18 -8 20 25 20 28 0 35 -4 35 -20z m340 0
c0 -16 -7 -20 -34 -20 -25 0 -35 5 -39 20 -4 17 0 20 34 20 32 0 39 -3 39 -20z
m120 0 c0 -18 -7 -20 -55 -20 -48 0 -55 2 -55 20 0 18 7 20 55 20 48 0 55 -2
55 -20z m120 0 c0 -18 -7 -20 -55 -20 -48 0 -55 2 -55 20 0 18 7 20 55 20 48
0 55 -2 55 -20z m90 0 c0 -17 -7 -20 -40 -20 -33 0 -40 3 -40 20 0 17 7 20 40
20 33 0 40 -3 40 -20z m-4810 -15 c0 -14 -4 -25 -10 -25 -5 0 -10 11 -10 25 0
14 5 25 10 25 6 0 10 -11 10 -25z m140 0 c0 -24 -2 -25 -65 -25 -63 0 -65 1
-65 25 0 24 2 25 65 25 63 0 65 -1 65 -25z m138 -2 c3 -22 0 -23 -57 -23 -59
0 -61 1 -61 25 0 25 2 26 58 23 50 -3 57 -6 60 -25z m142 2 c0 -24 -2 -25 -65
-25 -63 0 -65 1 -65 25 0 24 2 25 65 25 63 0 65 -1 65 -25z m90 0 c0 -22 -4
-25 -40 -25 -32 0 -40 4 -40 18 0 26 9 32 47 32 29 0 33 -3 33 -25z m490 0 c0
-24 -2 -25 -70 -25 -61 0 -70 2 -70 18 0 29 8 32 77 32 61 0 63 -1 63 -25z
m130 0 c0 -24 -3 -25 -60 -25 -57 0 -60 1 -60 25 0 24 3 25 60 25 57 0 60 -1
60 -25z m150 0 c0 -24 -2 -25 -70 -25 -68 0 -70 1 -70 25 0 24 2 25 70 25 68
0 70 -1 70 -25z m108 -2 c3 -21 0 -23 -47 -23 -48 0 -51 2 -51 26 0 24 2 25
48 22 40 -3 47 -6 50 -25z m1097 -116 c9 -147 7 -161 -23 -165 -22 -3 -22 -3
-22 142 0 137 1 146 19 146 17 0 20 -11 26 -123z m995 68 c0 -22 -4 -25 -40
-25 -36 0 -40 3 -40 25 0 23 4 25 40 25 36 0 40 -2 40 -25z m120 0 c0 -24 -3
-25 -55 -25 -52 0 -55 1 -55 25 0 24 3 25 55 25 52 0 55 -1 55 -25z m120 0 c0
-24 -3 -25 -55 -25 -52 0 -55 1 -55 25 0 24 3 25 55 25 52 0 55 -1 55 -25z
m90 0 c0 -22 -4 -25 -33 -25 -40 0 -46 5 -40 31 4 14 14 19 39 19 30 0 34 -3
34 -25z m322 0 c-2 -14 -11 -25 -18 -25 -8 0 -14 10 -14 25 0 18 5 25 19 25
14 0 17 -6 13 -25z m408 -1 c0 -24 -2 -25 -52 -22 -46 3 -53 6 -56 26 -3 21 0
22 52 22 53 0 56 -1 56 -26z m120 1 c0 -23 -3 -25 -49 -25 -51 0 -67 10 -57
35 4 11 21 15 56 15 47 0 50 -2 50 -25z m120 0 c0 -23 -3 -25 -50 -25 -47 0
-50 2 -50 25 0 23 3 25 50 25 47 0 50 -2 50 -25z m27 -12 c-3 -10 -5 -4 -5 12
0 17 2 24 5 18 2 -7 2 -21 0 -30z m-4747 -3 c0 -28 -2 -30 -40 -30 -37 0 -40
2 -40 28 0 27 3 29 40 30 38 2 40 0 40 -28z m145 0 c0 -24 -3 -25 -62 -28
l-63 -3 0 30 0 31 63 -3 c59 -2 62 -3 62 -27z m135 0 c0 -30 0 -30 -55 -30
-40 0 -57 4 -61 15 -12 31 3 42 60 44 l56 2 0 -31z m145 0 c0 -24 -3 -25 -63
-28 -65 -3 -82 8 -68 43 4 13 19 15 68 13 60 -3 63 -4 63 -28z m433 -2 c3 -26
1 -28 -32 -28 -31 0 -36 3 -36 23 0 31 9 39 40 35 19 -2 26 -10 28 -30z m147
2 c0 -24 -3 -25 -63 -28 -65 -3 -82 8 -68 43 4 13 19 15 68 13 60 -3 63 -4 63
-28z m130 0 c0 -23 -4 -25 -57 -28 l-58 -3 0 31 0 31 58 -3 c53 -3 57 -5 57
-28z m145 0 l0 -30 -65 0 -65 0 0 30 0 30 65 0 65 0 0 -30z m45 0 c0 -13 -6
-25 -12 -27 -9 -3 -13 6 -13 27 0 21 4 30 13 28 6 -3 12 -15 12 -28z m-878
-12 c-3 -7 -5 -2 -5 12 0 14 2 19 5 13 2 -7 2 -19 0 -25z m3496 15 c-29 -2
-77 -2 -105 0 -29 2 -6 3 52 3 58 0 81 -1 53 -3z m330 0 c-29 -2 -77 -2 -105
0 -29 2 -6 3 52 3 58 0 81 -1 53 -3z m-913 -48 c0 -14 -4 -25 -10 -25 -5 0
-10 11 -10 25 0 14 5 25 10 25 6 0 10 -11 10 -25z m120 0 c0 -24 -3 -25 -55
-25 -52 0 -55 1 -55 25 0 24 3 25 55 25 52 0 55 -1 55 -25z m120 0 c0 -24 -3
-25 -55 -25 -52 0 -55 1 -55 25 0 24 3 25 55 25 52 0 55 -1 55 -25z m120 0 c0
-24 -3 -25 -55 -25 -47 0 -55 3 -55 18 0 28 9 32 62 32 45 0 48 -2 48 -25z
m90 -60 c0 -50 -4 -85 -10 -85 -6 0 -10 35 -10 85 0 50 4 85 10 85 6 0 10 -35
10 -85z m30 0 c0 -50 -4 -85 -10 -85 -6 0 -10 35 -10 85 0 50 4 85 10 85 6 0
10 -35 10 -85z m30 0 c0 -50 -4 -85 -10 -85 -6 0 -10 35 -10 85 0 50 4 85 10
85 6 0 10 -35 10 -85z m30 0 c0 -50 -4 -85 -10 -85 -6 0 -10 35 -10 85 0 50 4
85 10 85 6 0 10 -35 10 -85z m30 -1 c0 -54 -4 -83 -10 -79 -11 7 -14 148 -3
158 12 13 13 7 13 -79z m27 -47 c-2 -23 -3 -1 -3 48 0 50 1 68 3 42 2 -26 2
-67 0 -90z m30 0 c-2 -23 -3 -1 -3 48 0 50 1 68 3 42 2 -26 2 -67 0 -90z m83
108 c0 -18 -5 -25 -20 -25 -20 0 -28 28 -13 43 15 16 33 6 33 -18z m70 -60 c0
-50 -4 -85 -10 -85 -6 0 -10 35 -10 85 0 50 4 85 10 85 6 0 10 -35 10 -85z
m30 0 c0 -50 -4 -85 -10 -85 -6 0 -10 35 -10 85 0 50 4 85 10 85 6 0 10 -35
10 -85z m30 0 c0 -50 -4 -85 -10 -85 -6 0 -10 35 -10 85 0 50 4 85 10 85 6 0
10 -35 10 -85z m30 0 c0 -50 -4 -85 -10 -85 -6 0 -10 35 -10 85 0 50 4 85 10
85 6 0 10 -35 10 -85z m30 0 c0 -50 -4 -85 -10 -85 -6 0 -10 35 -10 85 0 50 4
85 10 85 6 0 10 -35 10 -85z m30 0 c0 -50 -4 -85 -10 -85 -6 0 -10 35 -10 85
0 50 4 85 10 85 6 0 10 -35 10 -85z m30 -1 c0 -54 -4 -83 -10 -79 -5 3 -10 42
-10 86 0 46 4 79 10 79 6 0 10 -35 10 -86z m100 61 c0 -21 -5 -25 -30 -25 -25
0 -30 4 -30 25 0 21 5 25 30 25 25 0 30 -4 30 -25z m120 0 c0 -24 -3 -25 -55
-25 -47 0 -55 3 -55 18 0 28 9 32 62 32 45 0 48 -2 48 -25z m120 0 c0 -24 -3
-25 -55 -25 -47 0 -55 3 -55 18 0 28 9 32 62 32 45 0 48 -2 48 -25z m90 0 c0
-22 -4 -25 -40 -25 -32 0 -40 4 -40 18 0 26 9 32 47 32 29 0 33 -3 33 -25z
m-1000 -5 c0 -11 -4 -20 -10 -20 -5 0 -10 9 -10 20 0 11 5 20 10 20 6 0 10 -9
10 -20z m-3302 -42 l-3 -53 -262 -3 -263 -2 0 55 0 55 266 0 265 0 -3 -52z
m880 0 l-3 -53 -267 -3 -268 -2 0 55 0 55 271 0 270 0 -3 -52z m675 36 c50
-17 137 -94 137 -121 0 -8 -9 -17 -20 -20 -29 -8 -25 -16 23 -56 52 -43 113
-130 122 -175 7 -32 6 -33 -14 -21 -32 20 -37 2 -8 -25 15 -14 27 -28 27 -32
0 -7 -66 0 -92 11 -26 10 -22 -10 5 -23 19 -10 12 -12 -43 -12 -36 0 -100 -3
-143 -6 -65 -5 -81 -3 -96 11 -11 9 -22 12 -25 7 -9 -15 17 -42 48 -48 44 -8
107 -55 102 -77 -2 -9 4 -27 14 -40 16 -19 28 -22 102 -23 45 0 122 -8 171
-19 71 -15 94 -16 126 -7 21 7 52 12 68 12 17 0 61 12 99 26 52 19 79 24 111
19 26 -4 62 0 95 9 80 23 266 16 339 -13 76 -29 212 -167 229 -233 7 -23 21
-60 31 -81 11 -20 22 -59 24 -85 2 -26 7 -63 10 -82 4 -19 -1 -73 -10 -120 -9
-47 -19 -101 -22 -120 -7 -46 -21 -64 -39 -49 -17 14 -18 46 -3 103 6 24 9 56
7 72 -4 27 -6 25 -31 -29 -15 -32 -28 -72 -28 -90 -2 -32 -2 -32 -6 -3 -5 32
23 157 44 200 13 25 13 35 -2 82 -9 30 -20 54 -25 54 -15 0 -19 -29 -7 -59 9
-25 8 -42 -10 -98 -45 -148 -47 -170 -20 -258 24 -79 24 -80 6 -127 -33 -84
-51 -172 -58 -276 -8 -116 -23 -148 -84 -171 -38 -14 -87 -8 -87 10 0 6 13 29
29 52 32 46 61 168 61 259 0 61 -30 218 -42 218 -4 0 -8 -6 -9 -12 0 -7 -4 -3
-9 10 -8 18 -15 21 -35 16 -14 -3 -31 -2 -38 4 -6 5 -32 12 -57 15 -113 14
-140 31 -140 92 0 31 -24 75 -41 75 -5 0 -9 -7 -9 -15 0 -25 -17 -17 -30 16
-11 26 -11 33 3 46 15 15 18 14 44 -16 15 -17 35 -53 43 -79 13 -42 18 -47 44
-47 16 -1 31 -6 34 -13 2 -7 9 -12 17 -12 7 0 18 -7 25 -15 7 -8 16 -12 21 -9
11 7 9 65 -3 80 -5 7 -3 14 7 18 17 6 20 41 5 51 -6 3 -13 -1 -16 -9 -4 -10
-19 -16 -40 -16 -36 0 -42 -8 -21 -29 10 -10 8 -12 -7 -9 -29 5 -43 34 -28 58
6 11 12 33 12 50 0 24 -4 30 -21 30 -14 0 -19 -5 -16 -14 5 -12 1 -13 -16 -7
-19 7 -29 25 -43 79 -6 21 -32 13 -36 -10 -4 -21 -6 -20 -27 15 -25 40 -33 44
-50 23 -12 -15 1 -65 20 -77 6 -3 4 -17 -6 -35 -8 -16 -15 -40 -15 -54 0 -41
-27 -70 -64 -70 -17 0 -37 -5 -43 -11 -8 -8 -17 -8 -32 0 -26 14 -28 41 -3 35
11 -3 21 4 30 23 6 15 12 31 12 35 0 15 -28 8 -34 -8 -3 -9 -12 -14 -19 -11
-7 2 -22 -17 -37 -47 -16 -33 -32 -52 -45 -54 -19 -3 -19 -2 -1 12 22 18 15
46 -13 46 -31 0 -72 -22 -67 -36 3 -7 -5 -16 -17 -20 -12 -3 -33 -17 -47 -30
-23 -21 -29 -23 -58 -12 -34 13 -53 5 -34 -14 18 -18 14 -28 -10 -28 -36 0
-51 -15 -43 -41 6 -22 3 -21 -25 9 -28 30 -30 37 -24 82 6 42 4 50 -10 50 -13
0 -16 -12 -16 -65 0 -61 -2 -66 -25 -75 -18 -7 -38 -5 -73 8 -43 16 -47 21
-52 56 -5 38 -30 64 -30 32 0 -28 -41 -45 -88 -37 -32 7 -51 4 -80 -10 -20 -9
-80 -22 -132 -27 -116 -12 -146 -25 -169 -71 -43 -85 -55 -143 -55 -268 -1
-109 -3 -125 -21 -142 -33 -32 -62 -35 -78 -9 -28 44 -28 91 -2 199 14 57 25
133 25 169 0 36 6 76 13 90 16 31 69 67 118 80 21 6 65 26 96 45 32 19 78 38
102 44 61 13 67 23 36 59 l-27 32 34 -6 c18 -4 39 -14 46 -23 11 -14 14 -14
22 -1 16 26 11 40 -15 40 -18 0 -28 8 -36 28 -40 101 -59 120 -59 59 0 -37
-15 -57 -42 -57 -22 0 -24 26 -2 38 11 6 13 16 8 37 -6 23 -8 25 -16 11 -5 -9
-18 -16 -30 -16 -18 0 -20 4 -15 40 4 35 3 40 -15 40 -19 0 -20 4 -14 48 9 62
9 72 8 106 -2 23 -6 27 -22 23 -11 -3 -20 -1 -20 3 0 5 10 10 23 12 18 2 22 8
19 36 -1 17 2 32 8 32 5 0 10 10 10 23 0 12 4 29 10 37 16 25 24 -16 10 -50
-10 -24 -10 -33 0 -45 10 -12 10 -21 1 -43 -6 -15 -11 -41 -11 -57 1 -17 -2
-42 -6 -58 -5 -20 0 -36 17 -62 13 -19 27 -35 31 -35 13 0 21 134 10 164 -7
17 -8 32 -4 35 9 7 8 33 -3 138 -5 51 -4 82 5 103 10 24 10 36 -1 61 l-13 32
-13 -47 c-8 -26 -21 -50 -29 -53 -24 -9 -27 4 -8 36 15 26 16 34 5 55 -16 28
-8 46 20 46 10 0 19 4 19 9 0 5 8 11 18 14 11 2 22 17 25 36 4 18 13 31 22 31
19 0 19 14 0 30 -21 17 -19 30 5 30 21 0 24 4 34 52 5 22 15 29 53 40 60 17
69 38 16 38 -52 1 -112 30 -151 74 -66 76 -24 90 62 21 57 -47 112 -73 124
-60 4 4 2 10 -5 12 -32 11 -124 86 -116 94 11 11 67 -6 105 -33 14 -10 32 -18
39 -18 17 0 -19 39 -53 56 -37 19 -35 28 10 50 92 44 172 53 245 28z m1417
-49 c0 -22 -4 -25 -40 -25 -32 0 -40 4 -40 18 0 26 9 32 47 32 29 0 33 -3 33
-25z m120 0 c0 -24 -3 -25 -55 -25 -47 0 -55 3 -55 18 0 28 9 32 62 32 45 0
48 -2 48 -25z m120 0 c0 -24 -3 -25 -55 -25 -47 0 -55 3 -55 18 0 28 9 32 62
32 45 0 48 -2 48 -25z m88 -2 c3 -20 -1 -23 -31 -23 -26 0 -36 5 -40 19 -7 26
1 33 38 29 22 -2 31 -9 33 -25z m327 2 c0 -11 -8 -21 -17 -23 -14 -3 -18 3
-18 23 0 20 4 26 18 23 9 -2 17 -12 17 -23z m405 0 c0 -23 -3 -25 -49 -25 -51
0 -67 10 -57 35 4 11 21 15 56 15 47 0 50 -2 50 -25z m120 0 c0 -23 -3 -25
-49 -25 -51 0 -67 10 -57 35 4 11 21 15 56 15 47 0 50 -2 50 -25z m120 0 c0
-23 -3 -25 -50 -25 -47 0 -50 2 -50 25 0 23 3 25 50 25 47 0 50 -2 50 -25z
m27 -17 c-3 -7 -5 -2 -5 12 0 14 2 19 5 13 2 -7 2 -19 0 -25z m-1387 -43 c0
-14 -4 -25 -10 -25 -5 0 -10 11 -10 25 0 14 5 25 10 25 6 0 10 -11 10 -25z
m120 0 c0 -24 -3 -25 -55 -25 -52 0 -55 1 -55 25 0 24 3 25 55 25 52 0 55 -1
55 -25z m120 0 c0 -24 -3 -25 -55 -25 -52 0 -55 1 -55 25 0 24 3 25 55 25 52
0 55 -1 55 -25z m120 0 c0 -24 -3 -25 -55 -25 -52 0 -55 1 -55 25 0 24 3 25
55 25 52 0 55 -1 55 -25z m30 0 c0 -14 -4 -25 -10 -25 -5 0 -10 11 -10 25 0
14 5 25 10 25 6 0 10 -11 10 -25z m328 2 c4 -20 -25 -34 -40 -19 -15 15 -1 44
19 40 10 -2 19 -11 21 -21z m342 -2 c0 -21 -5 -25 -30 -25 -25 0 -30 4 -30 25
0 21 5 25 30 25 25 0 30 -4 30 -25z m120 0 c0 -24 -3 -25 -55 -25 -52 0 -55 1
-55 25 0 24 3 25 55 25 52 0 55 -1 55 -25z m120 0 c0 -23 -3 -25 -49 -25 -51
0 -67 10 -57 35 4 11 21 15 56 15 47 0 50 -2 50 -25z m90 0 c0 -22 -4 -25 -34
-25 -37 0 -51 12 -42 35 3 9 19 15 41 15 31 0 35 -3 35 -25z m-2275 -95 c0
-11 -15 -16 -59 -18 -59 -3 -84 7 -71 28 11 18 130 9 130 -10z m-47 -234 c2
-145 -1 -191 -10 -198 -36 -22 -38 -12 -38 193 l0 200 23 -3 c22 -3 22 -5 25
-192z m-821 176 c8 -5 1 -16 -23 -36 -20 -15 -37 -26 -39 -24 -6 6 33 68 42
68 5 0 13 -4 20 -8z m-47 -129 c0 -14 -19 -38 -25 -32 -8 8 5 39 16 39 5 0 9
-3 9 -7z m1231 -956 c-8 -8 -11 -7 -11 4 0 20 13 34 18 19 3 -7 -1 -17 -7 -23z
m-171 -31 c0 -3 -4 -8 -10 -11 -5 -3 -10 -1 -10 4 0 6 5 11 10 11 6 0 10 -2
10 -4z m120 -26 c-14 -11 -32 -20 -40 -20 -8 0 -1 9 15 19 39 26 57 26 25 1z
m76 -32 c3 -5 0 -15 -6 -23 -10 -13 -8 -15 14 -15 19 0 33 -10 52 -39 l26 -40
-40 -58 c-59 -88 -82 -138 -97 -214 -14 -77 -51 -135 -90 -145 -31 -8 -59 2
-49 18 5 8 0 9 -14 6 -30 -8 -28 -4 18 43 77 80 110 181 110 340 0 82 2 89 20
89 22 0 25 7 11 30 -6 8 -8 17 -5 21 5 9 42 0 50 -13z m-551 -38 c-3 -5 -12
-10 -18 -10 -7 0 -6 4 3 10 19 12 23 12 15 0z m675 -10 c0 -5 -5 -10 -11 -10
-5 0 -7 5 -4 10 3 6 8 10 11 10 2 0 4 -4 4 -10z m-1102 -22 c18 -18 14 -77 -8
-127 -23 -49 -25 -107 -10 -230 10 -74 9 -86 -7 -110 -10 -14 -23 -39 -29 -56
-8 -23 -20 -32 -48 -39 -34 -9 -40 -7 -56 13 -9 14 -22 21 -29 17 -22 -14 -10
16 24 61 33 43 35 51 35 118 0 39 -9 107 -20 150 -11 43 -19 79 -18 80 2 1 13
8 26 14 12 7 22 21 22 33 0 16 -3 19 -11 11 -6 -6 -18 -9 -28 -6 -13 3 -16 12
-13 38 l4 34 62 4 c33 2 68 4 77 5 8 1 20 -3 27 -10z m592 -203 l0 -215 -30 0
-30 0 0 209 c0 217 0 218 43 220 16 1 17 -16 17 -214z m58 -257 c3 -16 -6 -18
-77 -18 -61 0 -81 3 -81 13 0 24 13 28 84 25 58 -2 71 -6 74 -20z m-53 -74
c-3 -20 -11 -48 -17 -63 -10 -25 -11 -25 -24 24 -19 71 -18 75 17 75 30 0 31
-1 24 -36z"/>
<path d="M1590 3920 c-16 -16 -20 -33 -20 -85 l0 -65 61 0 61 0 -4 66 c-3 55
-8 70 -27 85 -30 24 -46 24 -71 -1z"/>
<path d="M1366 3919 c-23 -18 -26 -27 -26 -85 l0 -64 60 0 60 0 0 64 c0 58 -3
67 -26 85 -15 12 -30 21 -34 21 -4 0 -19 -9 -34 -21z"/>
<path d="M1866 3518 c-10 -14 -16 -44 -16 -80 l0 -58 55 0 55 0 0 63 c0 49 -4
68 -18 80 -26 23 -58 21 -76 -5z"/>
<path d="M2076 3518 c-10 -14 -16 -44 -16 -80 l0 -58 55 0 55 0 0 63 c0 49 -4
68 -18 80 -26 23 -58 21 -76 -5z"/>
<path d="M870 3530 c-16 -16 -20 -33 -20 -85 l0 -65 55 0 55 0 0 65 c0 68 -20
105 -55 105 -8 0 -24 -9 -35 -20z"/>
<path d="M1080 3528 c-16 -17 -20 -35 -20 -85 l0 -64 58 3 57 3 -3 65 c-6 94
-45 128 -92 78z"/>
<path d="M4762 2874 c-11 -12 -10 -17 4 -32 13 -12 19 -13 22 -4 2 6 10 12 18
12 8 0 14 5 14 10 0 6 -7 10 -15 10 -8 0 -15 5 -15 10 0 14 -13 12 -28 -6z"/>
<path d="M5100 2880 c0 -5 -7 -10 -15 -10 -8 0 -15 -4 -15 -10 0 -5 7 -10 15
-10 8 0 15 -8 15 -17 0 -14 3 -13 21 5 18 20 18 24 5 37 -17 17 -26 19 -26 5z"/>
<path d="M2886 2582 c-3 -6 1 -13 10 -16 23 -9 28 -2 10 13 -8 7 -17 8 -20 3z"/>
<path d="M2860 2485 c0 -15 48 -53 73 -59 49 -12 23 27 -36 52 -31 13 -37 14
-37 7z"/>
<path d="M2710 2335 c0 -14 5 -25 10 -25 6 0 10 11 10 25 0 14 -4 25 -10 25
-5 0 -10 -11 -10 -25z"/>
<path d="M2502 2226 c3 -23 48 -37 48 -14 0 20 -13 33 -33 34 -13 2 -17 -4
-15 -20z"/>
<path d="M2800 2150 c0 -19 3 -21 12 -12 9 9 9 15 0 24 -9 9 -12 7 -12 -12z"/>
<path d="M2503 2114 c-9 -25 11 -38 38 -24 22 12 22 13 4 26 -24 18 -34 18
-42 -2z"/>
<path d="M2830 2089 c0 -11 5 -17 10 -14 6 3 10 13 10 21 0 8 -4 14 -10 14 -5
0 -10 -9 -10 -21z"/>
<path d="M2567 1983 c-43 -4 -48 -7 -45 -26 3 -24 26 -27 68 -10 31 13 60 44
39 41 -8 -1 -36 -3 -62 -5z"/>
<path d="M4155 1908 c-7 -17 0 -96 9 -105 3 -3 6 -17 6 -30 0 -32 15 -29 30 7
11 26 10 33 -4 49 -9 9 -16 32 -16 49 0 33 -17 52 -25 30z"/>
<path d="M2538 1855 c-6 -14 -9 -28 -6 -31 8 -7 108 26 133 44 18 13 17 13
-15 7 -19 -4 -45 -9 -57 -12 -13 -3 -23 0 -23 6 0 20 -20 11 -32 -14z"/>
<path d="M2667 1773 c-15 -15 -5 -23 21 -17 41 10 51 24 16 24 -17 0 -34 -3
-37 -7z"/>
<path d="M2585 1751 c-8 -13 13 -33 30 -29 29 5 29 25 0 30 -14 3 -27 2 -30
-1z"/>
<path d="M3606 1698 c9 -50 13 -60 24 -53 14 9 13 58 -2 73 -20 20 -28 13 -22
-20z"/>
<path d="M2535 1711 c-6 -5 -19 -11 -29 -13 -18 -3 -17 -5 6 -20 25 -16 58
-15 58 1 0 17 -26 41 -35 32z"/>
<path d="M2570 1632 c0 -10 4 -23 9 -31 8 -12 12 -12 25 -2 8 7 20 10 25 7 13
-8 23 8 16 26 -8 21 -75 21 -75 0z"/>
<path d="M3267 1644 c-10 -11 -9 -44 2 -44 15 0 19 13 12 33 -4 10 -10 15 -14
11z"/>
<path d="M3743 1593 c9 -9 20 -13 24 -9 4 4 1 11 -7 16 -25 16 -35 11 -17 -7z"/>
<path d="M3205 1558 c-11 -37 -15 -88 -6 -88 20 0 41 42 30 62 -5 10 -7 23 -4
28 3 6 1 10 -5 10 -6 0 -12 -6 -15 -12z"/>
<path d="M3385 1539 c-10 -15 3 -25 16 -12 7 7 7 13 1 17 -6 3 -14 1 -17 -5z"/>
<path d="M3460 1531 c0 -28 17 -35 29 -12 8 15 7 20 -5 25 -23 9 -24 8 -24
-13z"/>
<path d="M3046 1491 c-3 -5 -3 -23 0 -40 6 -29 8 -31 24 -16 11 10 15 25 12
40 -4 25 -25 34 -36 16z"/>
<path d="M3267 1482 c-20 -21 -22 -42 -6 -42 14 0 38 30 39 48 0 17 -14 15
-33 -6z"/>
<path d="M3145 1394 c-20 -32 -16 -38 19 -25 29 12 33 23 12 40 -11 9 -17 6
-31 -15z"/>
<path d="M3070 1395 c-7 -8 -10 -18 -7 -21 8 -8 62 11 62 22 0 16 -41 16 -55
-1z"/>
<path d="M3942 1379 c2 -7 10 -15 17 -17 8 -3 12 1 9 9 -2 7 -10 15 -17 17 -8
3 -12 -1 -9 -9z"/>
<path d="M3906 1351 c-8 -12 10 -51 24 -51 20 0 21 23 2 42 -13 13 -22 16 -26
9z"/>
<path d="M3020 1331 c0 -12 2 -21 4 -21 2 0 12 -3 21 -6 13 -5 16 -2 13 17 -4
31 -38 39 -38 10z"/>
</g>
</svg>
